<?xml version="1.0" standalone="no"?>
<!DOCTYPE svg PUBLIC "-//W3C//DTD SVG 20010904//EN"
 "http://www.w3.org/TR/2001/REC-SVG-20010904/DTD/svg10.dtd">
<svg version="1.0" xmlns="http://www.w3.org/2000/svg"
 width="2024.000000pt" height="2020.000000pt" viewBox="0 0 2024.000000 2020.000000"
 preserveAspectRatio="xMidYMid meet">
<metadata>
Created by potrace 1.16, written by Peter Selinger 2001-2019
</metadata>
<g transform="translate(0.000000,2020.000000) scale(0.100000,-0.100000)"
fill="#000000" stroke="none">
<path d="M0 10100 l0 -10100 10120 0 10120 0 0 6115 0 6115 -26 0 c-32 0 -61
15 -99 51 -16 15 -36 29 -43 31 -22 5 -112 95 -112 111 0 8 -9 34 -20 58 -19
44 -27 109 -12 109 4 0 41 -6 82 -14 86 -17 162 -54 203 -99 l27 -31 0 3877 0
3877 -10120 0 -10120 0 0 -10100z m15931 8588 c66 -129 63 -324 -6 -518 -15
-41 -32 -93 -39 -116 -6 -22 -24 -60 -39 -83 l-29 -43 11 -177 c5 -97 15 -219
21 -271 12 -100 52 -577 52 -620 1 -14 4 -65 9 -115 15 -164 17 -232 8 -246
-6 -10 -9 -3 -9 21 0 19 -5 53 -11 75 -5 22 -17 87 -25 145 -8 58 -17 122 -20
143 -4 26 -11 37 -23 37 -29 0 -62 30 -59 53 4 31 -9 46 -32 40 -11 -3 -20 -1
-20 5 0 6 8 13 18 15 9 3 4 5 -13 6 -50 2 -56 12 -67 112 -5 52 -11 108 -13
124 -18 159 -48 377 -57 408 -24 79 -125 107 -213 59 -22 -12 -44 -22 -48 -22
-5 0 -38 -13 -73 -30 -35 -16 -93 -43 -128 -60 -35 -16 -67 -30 -70 -30 -3 0
-31 -12 -63 -26 -32 -14 -74 -33 -93 -41 -80 -35 -128 -57 -186 -84 -33 -16
-63 -29 -67 -29 -3 0 -39 -15 -79 -34 -67 -31 -264 -118 -348 -153 -19 -8 -58
-25 -86 -39 -28 -13 -56 -24 -63 -24 -7 0 -29 -9 -49 -20 -38 -21 -190 -90
-197 -90 -3 0 -33 -13 -67 -29 -35 -15 -74 -32 -88 -36 -14 -4 -54 -22 -90
-40 -36 -18 -114 -54 -175 -80 -154 -66 -178 -76 -288 -129 -54 -25 -103 -46
-111 -46 -7 0 -36 -11 -64 -25 -58 -28 -62 -29 -62 -16 0 5 10 13 23 17 12 4
24 9 27 13 3 3 34 19 70 35 36 16 97 43 135 61 39 18 93 41 120 50 28 10 56
22 63 28 18 14 112 57 125 57 6 0 56 22 111 49 56 28 124 57 151 66 28 9 61
24 75 33 54 34 133 72 151 72 11 0 22 7 25 15 4 8 13 15 21 15 17 0 42 28 43
48 0 20 -30 14 -62 -13 -16 -14 -39 -25 -51 -25 -12 0 -35 -7 -52 -16 -18 -9
-42 -13 -59 -10 -35 7 -119 -18 -158 -47 -17 -12 -28 -30 -28 -44 0 -14 -6
-23 -15 -23 -9 0 -15 10 -15 26 0 15 -4 23 -11 19 -6 -4 -8 -13 -5 -21 8 -20
-20 -29 -50 -16 -21 10 -28 8 -58 -18 -18 -17 -38 -30 -44 -30 -6 0 -18 -7
-26 -16 -18 -18 -38 -10 -29 11 8 23 -25 18 -39 -5 -7 -11 -18 -20 -25 -20 -7
0 -13 -4 -13 -10 0 -5 -13 -10 -29 -10 -17 0 -32 -4 -35 -9 -3 -4 -34 -18 -68
-31 -35 -12 -67 -29 -71 -36 -9 -16 -83 -38 -97 -29 -6 3 -10 2 -10 -3 0 -12
-55 -25 -95 -23 -17 1 -41 -2 -55 -8 -14 -5 -19 -10 -11 -10 10 -1 8 -8 -9
-26 -13 -14 -28 -24 -34 -23 -6 1 -20 -3 -32 -9 -11 -7 -32 -14 -45 -17 -13
-2 -58 -23 -100 -45 -47 -24 -84 -38 -96 -35 -12 3 -24 1 -27 -5 -4 -6 -18
-11 -31 -11 -13 0 -27 -4 -30 -10 -3 -5 -16 -10 -28 -10 -12 0 -38 -11 -58
-24 -21 -14 -49 -24 -68 -24 -33 1 -55 -12 -33 -19 6 -3 10 -9 7 -14 -3 -5
-14 -3 -25 3 -16 10 -22 8 -38 -12 -18 -22 -22 -23 -51 -11 -36 15 -39 27 -11
36 11 3 20 13 20 21 0 8 7 14 17 14 9 0 44 13 79 30 34 16 74 32 88 36 14 3
26 10 26 14 0 5 15 12 33 15 17 4 39 13 47 21 9 7 38 23 65 34 28 12 69 30 93
41 24 11 62 27 85 35 47 18 173 75 229 105 20 10 46 19 57 19 11 0 26 7 35 15
8 8 18 15 21 15 4 0 21 6 38 14 18 8 52 21 77 31 25 9 52 22 60 29 8 7 31 19
50 26 19 7 67 28 107 47 39 18 76 33 82 33 7 0 22 6 34 14 12 7 72 35 132 61
61 25 128 55 150 65 22 10 114 50 205 90 91 39 179 77 195 85 57 26 170 77
205 92 19 8 53 23 75 33 22 10 220 98 440 195 220 97 418 185 440 195 22 10
90 40 150 65 61 26 130 56 155 67 25 12 64 21 87 22 24 1 45 6 47 12 3 7 18
19 35 27 30 15 31 15 35 -6 3 -12 4 -35 3 -51 -5 -82 48 -7 98 139 42 121 45
316 8 463 -8 35 5 26 28 -20z m-489 -1033 c4 -16 11 -71 14 -122 8 -108 4
-115 -71 -148 -27 -13 -80 -37 -118 -54 -37 -17 -69 -31 -72 -31 -2 0 -61 -27
-132 -59 -70 -32 -182 -82 -248 -110 -66 -29 -129 -56 -140 -61 -11 -5 -59
-25 -106 -44 -47 -18 -137 -59 -200 -89 -63 -31 -139 -65 -169 -77 -30 -12
-64 -25 -75 -30 -31 -13 -128 -49 -264 -96 l-124 -43 -29 29 c-24 25 -37 29
-71 28 -23 -1 -68 -1 -100 0 -56 2 -57 3 -51 27 5 19 2 25 -11 25 -33 0 2 26
98 73 102 50 287 137 293 137 2 0 36 15 76 34 40 19 147 66 238 106 91 40 194
86 230 102 36 17 124 56 195 88 72 32 169 76 218 99 48 22 89 41 91 41 2 0 44
18 93 40 98 46 97 45 208 95 44 19 98 44 120 55 58 28 97 23 107 -15z m1398
-1496 c91 2 174 -16 242 -50 53 -27 175 -152 231 -237 66 -101 97 -151 97
-157 0 -6 35 -86 61 -140 10 -22 19 -48 19 -58 0 -9 9 -36 19 -60 37 -81 93
-272 95 -322 l1 -50 -34 2 c-38 1 -81 21 -81 37 0 15 -124 195 -167 242 -51
55 -71 64 -141 64 -68 0 -145 30 -202 80 -19 16 -38 30 -42 30 -5 0 -8 -20 -8
-45 0 -26 -7 -60 -16 -77 -12 -22 -15 -45 -11 -77 6 -46 62 -169 105 -228 12
-17 22 -35 22 -40 0 -4 18 -34 40 -66 22 -31 40 -61 40 -66 0 -5 9 -20 19 -33
106 -126 188 -239 260 -355 57 -91 53 -192 -8 -247 -17 -16 -30 -18 -81 -12
-35 4 -60 3 -60 -2 0 -19 -39 -19 -69 -1 -65 39 -181 232 -181 299 0 33 5 35
52 15 12 -5 20 -2 24 9 11 30 -37 196 -100 343 -35 81 -84 202 -111 268 -26
66 -51 129 -55 140 -25 62 -30 88 -18 104 30 40 83 91 95 91 39 0 20 58 -42
125 -20 22 -48 56 -63 75 -14 19 -41 50 -59 67 -32 32 -43 63 -24 63 27 0 20
44 -18 116 -23 43 -41 90 -41 105 0 37 41 62 90 53 19 -3 73 -5 120 -5z m-495
-639 c29 -18 35 -28 45 -88 12 -63 11 -69 -10 -105 -15 -25 -28 -36 -37 -33
-8 3 -32 6 -54 6 -34 0 -42 5 -59 33 -10 17 -23 37 -27 42 -5 6 -6 39 -3 74 5
63 6 65 40 77 50 18 68 17 105 -6z m-5017 -132 c6 -18 15 -73 21 -123 7 -49
18 -121 26 -160 16 -81 68 -407 100 -625 8 -52 19 -122 24 -155 18 -103 -3
-185 -36 -142 -23 28 -52 156 -66 287 -3 19 -11 71 -20 115 -8 44 -27 157 -42
250 -15 94 -33 202 -40 242 -26 134 -39 290 -27 318 17 36 48 33 60 -7z m-184
-47 c3 -5 10 -37 15 -72 6 -35 19 -116 31 -179 11 -63 27 -160 35 -215 8 -55
19 -129 25 -165 6 -36 15 -95 20 -132 5 -37 12 -77 15 -90 11 -49 45 -292 45
-327 0 -21 -6 -45 -13 -54 -31 -44 -62 42 -97 273 -34 221 -38 244 -64 395 -9
50 -26 144 -37 210 -11 66 -25 139 -30 162 -15 69 -11 164 8 185 17 19 38 24
47 9z m357 -63 c6 -24 16 -54 21 -68 6 -14 16 -56 24 -95 7 -38 18 -90 24
-115 6 -25 15 -76 20 -115 13 -88 34 -216 61 -370 26 -148 32 -252 14 -259
-14 -5 -38 18 -48 47 -9 24 -38 189 -47 267 -5 36 -15 110 -23 165 -35 226
-49 324 -58 395 -5 41 -13 92 -18 113 -17 75 10 106 30 35z m-542 -21 c6 -8
15 -47 21 -88 6 -41 15 -90 19 -109 5 -19 14 -73 21 -120 6 -47 15 -101 20
-120 5 -19 14 -75 20 -125 6 -49 15 -101 20 -115 5 -14 14 -65 20 -115 5 -49
20 -156 33 -237 27 -167 26 -211 -6 -206 -15 2 -25 16 -35 48 -13 41 -50 232
-73 375 -5 33 -18 107 -28 165 -104 571 -110 618 -73 648 20 15 27 15 41 -1z
m-170 -69 c4 -13 11 -57 15 -98 4 -41 12 -95 18 -120 5 -25 16 -83 23 -130 8
-47 21 -125 30 -175 8 -49 35 -211 59 -360 44 -274 49 -365 20 -365 -8 0 -24
21 -35 48 -19 44 -26 73 -49 212 -15 88 -36 212 -71 405 -17 99 -35 203 -39
230 -4 28 -15 86 -25 130 -22 107 -22 201 1 226 23 25 43 24 53 -3z m-172 -53
c-7 -16 14 -188 37 -305 8 -41 26 -147 40 -235 14 -88 31 -182 36 -210 31
-148 64 -379 65 -445 0 -60 -3 -75 -16 -78 -20 -4 -55 69 -63 133 -3 28 -13
82 -21 120 -14 67 -33 174 -60 335 -34 202 -65 375 -74 408 -5 20 -14 76 -21
125 -17 111 -5 135 79 166 2 0 1 -6 -2 -14z m-193 -103 c6 -10 61 -324 77
-432 9 -64 36 -220 64 -370 8 -41 19 -112 25 -157 6 -45 17 -106 25 -136 15
-58 8 -148 -11 -154 -29 -10 -70 106 -88 242 -4 28 -18 106 -31 175 -13 69
-26 139 -28 155 -3 17 -14 82 -26 145 -12 63 -30 167 -41 230 -12 63 -25 137
-30 163 -14 68 -12 99 6 125 15 22 48 30 58 14z m-186 -81 c13 -8 28 -82 53
-260 5 -41 12 -78 15 -82 4 -8 45 -242 69 -399 8 -52 19 -113 24 -135 6 -22
15 -78 21 -125 6 -47 16 -101 22 -121 11 -40 0 -120 -19 -126 -17 -6 -50 77
-68 166 -37 192 -46 240 -55 301 -6 36 -17 97 -25 135 -8 39 -21 106 -30 150
-8 44 -20 103 -26 130 -16 78 -41 256 -42 301 -2 59 26 88 61 65z m7706 -63
c21 -14 54 -49 73 -78 34 -51 39 -72 46 -195 1 -22 9 -52 16 -68 20 -39 3 -56
-41 -39 -17 6 -32 11 -33 9 0 -1 -10 -20 -22 -42 -15 -28 -22 -64 -25 -122 -4
-58 -10 -88 -21 -101 -11 -12 -17 -36 -17 -68 0 -61 -9 -96 -24 -91 -26 9
-142 275 -155 358 -6 36 -18 80 -26 96 -19 38 -10 63 22 63 19 0 24 4 19 16
-3 9 -6 20 -6 25 0 5 -9 9 -20 9 -24 0 -27 36 -5 66 8 10 15 36 15 57 0 42 32
122 52 131 31 13 115 -1 152 -26z m-7875 -26 c5 -10 13 -51 17 -92 4 -41 11
-86 16 -99 8 -21 72 -384 103 -581 8 -47 20 -119 28 -160 24 -120 39 -243 36
-275 -5 -41 -35 -46 -50 -8 -5 15 -17 41 -24 56 -8 16 -19 65 -25 110 -6 45
-17 105 -25 132 -7 28 -16 75 -20 105 -4 30 -15 93 -25 140 -11 47 -31 150
-45 230 -14 80 -31 165 -37 190 -30 124 -37 237 -16 258 18 18 56 15 67 -6z
m8656 -981 c112 -57 228 -150 291 -233 42 -54 4 -158 -58 -158 -23 0 -36 11
-72 63 -46 64 -54 73 -196 214 -86 85 -140 146 -140 157 0 3 17 6 39 6 26 0
69 -15 136 -49z m451 -337 c27 -9 53 -21 59 -25 5 -5 15 -9 21 -9 24 0 80 -45
112 -90 57 -78 84 -148 90 -230 5 -70 4 -73 -12 -57 -10 9 -28 17 -41 17 -23
0 -125 83 -125 102 0 5 -26 42 -58 81 -109 136 -145 206 -109 220 6 3 12 6 13
6 0 1 23 -6 50 -15z m-4272 -258 c44 -41 49 -90 14 -136 -24 -33 -49 -38 -68
-15 -13 16 -25 147 -16 171 9 23 32 16 70 -20z m-2994 -90 c134 -24 185 -34
226 -45 22 -6 53 -11 71 -11 18 0 45 -5 60 -11 15 -7 42 -17 58 -24 17 -7 48
-18 70 -25 22 -7 49 -19 60 -26 11 -8 26 -14 34 -14 14 0 101 -39 151 -67 14
-8 41 -21 60 -30 19 -8 37 -18 40 -22 3 -3 25 -17 49 -30 50 -27 158 -107 213
-157 20 -19 39 -34 42 -34 2 0 60 -56 128 -125 159 -160 257 -315 200 -315
-22 0 -129 72 -362 243 -68 49 -76 55 -101 72 -9 6 -44 29 -79 53 -54 36 -280
152 -297 152 -2 0 -40 15 -83 34 -172 76 -387 124 -680 151 -363 35 -842 -24
-1270 -155 -58 -18 -113 -36 -122 -41 -16 -8 -129 -49 -135 -49 -2 0 -3 4 -3
9 0 5 10 13 23 16 12 4 36 13 52 20 387 162 777 247 1205 262 142 6 172 9 130
14 -80 11 -325 13 -555 6 -169 -5 -223 -11 -350 -37 -156 -32 -248 -56 -277
-71 -10 -5 -24 -9 -33 -9 -18 0 -256 -80 -270 -90 -5 -5 -28 -11 -50 -15 l-40
-7 50 24 c118 57 288 122 450 172 50 15 96 29 103 31 19 7 14 22 -10 30 -13 3
-18 9 -11 11 7 3 21 1 32 -5 24 -13 61 -14 61 -2 0 5 -6 11 -12 14 -22 7 10
36 33 30 11 -3 28 2 38 11 19 17 226 57 391 76 115 13 610 3 710 -14z m7836
-172 c91 -46 164 -159 166 -254 0 -19 4 -43 9 -52 7 -12 6 -18 -1 -18 -6 0
-10 -10 -9 -22 5 -38 -6 -47 -47 -34 -43 13 -122 86 -147 136 -10 19 -22 42
-27 50 -5 8 -27 54 -49 101 -50 107 -47 134 11 126 22 -3 64 -18 94 -33z
m-6676 -681 c124 -42 292 -120 415 -193 161 -96 434 -355 447 -425 3 -17 -2
-19 -42 -16 -51 3 -90 26 -170 100 -130 121 -352 275 -490 339 -65 31 -259
114 -292 125 -20 7 -19 48 0 55 20 6 14 20 -10 24 -12 2 -23 9 -26 17 -6 19
70 7 168 -26z m359 -499 c86 -28 95 -29 87 -9 -3 8 -1 15 4 15 6 0 10 -4 10
-10 0 -5 17 -17 38 -27 44 -20 80 -44 145 -96 81 -66 52 -78 -53 -22 -36 20
-96 51 -135 69 -38 18 -99 47 -135 64 -123 59 -111 64 39 16z m2011 -230 c47
-15 112 -35 145 -46 95 -32 368 -171 411 -209 11 -11 24 -19 28 -19 8 0 113
-78 160 -120 134 -118 376 -388 376 -420 0 -5 5 -10 10 -10 6 0 18 -17 28 -37
9 -21 22 -43 27 -49 38 -44 54 -72 107 -183 57 -122 83 -175 155 -311 71 -133
92 -177 119 -245 29 -76 64 -184 64 -200 -1 -15 -34 31 -77 103 -20 34 -40 62
-45 62 -4 0 -8 5 -8 10 0 35 -235 320 -354 430 -146 134 -349 283 -556 407
-68 41 -314 163 -329 163 -8 0 -22 6 -30 13 -9 7 -34 19 -56 26 -85 27 -163
73 -228 135 -49 46 -73 63 -87 59 -17 -5 -20 0 -21 28 -1 19 0 42 1 53 1 10
-3 15 -8 12 -9 -6 -42 51 -42 73 0 6 -7 8 -16 4 -13 -5 -15 -2 -10 15 9 28
-10 62 -34 62 -13 0 -18 5 -13 16 3 8 -1 29 -10 47 -9 18 -18 40 -21 50 -3 10
-10 15 -16 12 -5 -3 -10 -1 -10 5 0 6 -16 18 -35 26 -56 23 -44 54 24 61 20 2
38 7 41 10 13 14 229 -9 310 -33z m-2217 -1385 c44 -24 48 -61 16 -135 -29
-67 -52 -86 -110 -92 -41 -4 -51 -1 -73 21 -33 33 -32 59 2 122 43 79 110 113
165 84z m-327 -64 c32 -32 63 -45 65 -27 0 4 2 17 3 29 3 30 14 39 27 26 9 -9
8 -20 0 -44 -6 -17 -11 -47 -11 -65 0 -30 -21 -64 -40 -64 -10 0 -60 58 -60
70 0 5 -9 12 -20 15 -32 10 -54 49 -40 74 15 30 36 26 76 -14z m848 -123 c4
-10 -5 -50 -19 -90 -14 -39 -25 -85 -25 -102 0 -23 -4 -30 -20 -30 -15 0 -20
7 -20 29 0 36 -40 56 -94 46 -47 -9 -49 13 -5 46 17 13 43 34 57 45 41 33 104
74 113 74 4 0 10 -8 13 -18z m-1346 -226 c37 -19 78 -65 92 -100 11 -31 6 -74
-15 -116 -82 -166 -107 -213 -117 -220 -4 -3 -21 -35 -38 -71 -21 -47 -45 -78
-83 -110 -28 -24 -63 -56 -77 -71 -14 -15 -46 -36 -72 -48 -27 -11 -48 -25
-48 -30 0 -6 -10 -10 -23 -10 -13 0 -27 -4 -32 -9 -21 -21 -198 -71 -249 -71
-58 0 -61 5 -37 65 7 16 17 50 22 76 6 26 21 59 35 74 13 14 24 35 24 46 0 10
9 28 20 39 14 14 20 33 20 65 0 35 6 52 24 70 13 13 27 39 31 57 4 18 11 38
15 43 4 6 10 27 14 47 4 21 13 41 20 45 8 5 31 23 53 41 51 45 175 132 187
132 5 0 30 9 55 21 25 12 60 27 76 35 39 17 69 18 103 0z m-1878 -1735 c0 -10
-7 -58 -15 -106 -9 -48 -13 -90 -11 -93 3 -2 1 -14 -5 -24 -8 -14 -8 -23 0
-31 16 -16 14 -23 -16 -43 -26 -16 -74 -21 -94 -8 -5 3 2 20 16 38 14 18 25
44 25 58 0 14 9 33 20 43 11 10 20 26 19 34 -4 33 37 151 53 151 4 0 8 -8 8
-19z m3523 -180 c23 -6 55 -13 70 -16 44 -9 29 -34 -33 -57 -30 -11 -65 -22
-77 -25 -30 -7 -29 -19 12 -78 19 -27 31 -53 26 -58 -10 -10 -152 10 -166 24
-17 17 13 27 63 21 l45 -5 -27 36 c-16 21 -26 43 -22 52 5 14 44 35 89 49 28
9 20 26 -12 26 -31 0 -47 13 -36 30 8 12 15 12 68 1z m-2623 -320 c182 -38
202 -41 241 -41 32 0 39 -3 39 -20 0 -18 -7 -20 -63 -20 -34 0 -78 4 -96 10
-24 7 -39 6 -47 -1 -10 -8 -18 -7 -30 6 -9 9 -26 15 -38 14 -26 -2 -88 12 -82
19 9 9 -23 32 -53 38 -17 4 -31 10 -31 14 0 14 12 18 38 9 15 -4 70 -17 122
-28z m-960 -120 c17 -32 12 -66 -15 -97 -14 -16 -25 -39 -25 -50 0 -18 -7 -23
-42 -26 -61 -6 -84 1 -98 27 -26 48 21 123 93 148 57 21 75 20 87 -2z m3315
-56 c33 -21 55 -42 55 -52 -1 -30 -98 -143 -123 -143 -27 0 -41 10 -50 33 -4
11 -17 17 -37 17 -19 0 -30 5 -30 14 0 16 21 26 54 26 29 0 73 33 81 61 5 15
1 25 -15 36 -16 12 -19 18 -9 29 15 18 12 19 74 -21z m-3314 -151 c-2 -11 -4
-41 -5 -69 -1 -48 -2 -50 -32 -53 -38 -4 -129 37 -129 58 0 8 19 24 43 36 23
11 52 30 64 41 25 26 65 17 59 -13z m3147 -76 c17 -15 15 -79 -5 -108 -40 -62
-76 -90 -112 -90 -42 0 -54 7 -69 37 -23 42 43 146 108 172 26 10 56 6 78 -11z
m-3089 -153 c26 -38 26 -40 -31 -98 -36 -37 -80 -39 -107 -6 -30 35 -26 52 24
98 55 51 82 52 114 6z m2419 -398 c11 -13 16 -46 14 -84 -3 -30 -59 -93 -99
-109 -51 -22 -103 9 -103 61 0 83 145 185 188 132z m-2056 -101 c17 -31 -10
-44 -97 -51 -43 -3 -82 -11 -86 -17 -13 -21 14 -48 48 -48 37 0 40 -6 16 -32
-36 -40 -103 -9 -103 48 0 54 44 94 104 94 49 0 60 16 31 40 -18 15 -19 37 -2
43 13 5 72 -46 89 -77z m1802 -73 c4 -38 8 -77 9 -87 1 -14 -16 -29 -71 -59
-70 -38 -74 -39 -92 -22 -23 21 -25 47 -8 75 10 15 9 22 -5 38 -9 10 -17 24
-17 30 0 17 40 15 46 -3 8 -19 18 -19 71 1 37 15 42 20 37 40 -3 13 -4 31 0
39 12 32 23 12 30 -52z m-659 -205 c31 3 45 1 45 -8 0 -19 -153 -171 -163
-161 -5 5 -5 29 1 58 9 39 8 49 -4 56 -20 11 -17 25 6 32 11 3 20 12 20 19 0
6 6 18 13 25 10 10 15 8 25 -7 10 -16 21 -19 57 -14z m-203 -2 c25 -37 -8
-136 -58 -175 -51 -40 -114 -19 -114 38 0 45 47 127 83 144 33 16 76 13 89 -7z
m-559 -2882 c21 -8 41 -12 45 -10 8 4 62 -9 172 -42 36 -11 109 -27 163 -37
53 -10 97 -22 97 -26 0 -12 -53 -11 -82 0 -13 5 -65 14 -117 21 -101 13 -215
41 -270 66 -18 9 -39 17 -45 19 -40 8 -66 18 -66 26 0 11 52 2 103 -17z"/>
<path d="M13490 7133 c-55 -45 -60 -102 -11 -118 29 -9 87 24 107 61 39 73
-29 114 -96 57z"/>
<path d="M12854 6595 c-49 -21 -74 -50 -74 -83 0 -41 28 -57 74 -42 55 18 90
67 76 106 -11 27 -40 35 -76 19z"/>
</g>
</svg>
