<?xml version="1.0" standalone="no"?>
<!DOCTYPE svg PUBLIC "-//W3C//DTD SVG 20010904//EN"
 "http://www.w3.org/TR/2001/REC-SVG-20010904/DTD/svg10.dtd">
<svg version="1.0" xmlns="http://www.w3.org/2000/svg"
 width="1460.000000pt" height="1456.000000pt" viewBox="0 0 1460.000000 1456.000000"
 preserveAspectRatio="xMidYMid meet">
<metadata>
Created by potrace 1.16, written by Peter Selinger 2001-2019
</metadata>
<g transform="translate(0.000000,1456.000000) scale(0.100000,-0.100000)"
fill="#000000" stroke="none">
<path d="M0 7280 l0 -7280 1253 0 1253 0 -4 40 c-3 32 -1 40 13 40 9 0 25 10
35 22 14 18 28 22 76 22 59 0 154 -22 154 -35 0 -11 60 -22 115 -20 28 0 63
-6 79 -14 15 -8 53 -15 82 -15 41 0 59 -5 74 -20 20 -20 33 -20 5745 -20
l5725 0 0 7280 0 7280 -7300 0 -7300 0 0 -7280z m7726 7064 c1 -50 37 -107 62
-100 22 7 47 -8 38 -23 -4 -7 0 -11 11 -11 36 0 73 -24 73 -47 0 -27 7 -29 31
-7 23 20 60 3 52 -24 -2 -11 6 -32 22 -50 15 -18 23 -32 18 -32 -22 -1 35 -30
59 -30 15 0 28 -4 28 -10 0 -17 48 -11 60 8 10 15 11 15 7 -4 -4 -21 22 -54
43 -54 6 0 10 -7 10 -15 0 -8 7 -15 15 -15 8 0 15 8 15 18 0 15 3 14 18 -5 9
-11 25 -23 35 -25 25 -4 24 -21 -2 -34 -22 -11 -22 -11 -2 -17 12 -3 21 -1 21
3 0 5 9 12 21 15 14 5 25 1 34 -12 8 -11 32 -28 54 -38 39 -17 41 -21 41 -60
0 -39 2 -43 29 -48 25 -5 30 -11 28 -34 -2 -24 2 -28 26 -31 18 -2 27 -9 27
-22 0 -29 11 -50 25 -50 8 0 17 -9 20 -20 3 -11 13 -20 21 -20 8 0 14 -10 14
-23 0 -16 10 -27 38 -39 50 -23 102 -73 102 -98 0 -12 10 -25 25 -32 28 -13
32 -26 10 -42 -10 -8 -12 -15 -5 -26 8 -13 10 -12 10 3 0 26 41 18 56 -11 6
-13 15 -22 20 -20 4 2 11 -10 15 -25 4 -16 19 -40 33 -54 14 -14 26 -36 26
-48 0 -12 9 -48 20 -80 11 -32 20 -67 20 -78 0 -10 19 -56 42 -100 24 -45 42
-85 41 -88 -3 -9 14 -111 29 -169 18 -72 17 -473 -2 -540 -25 -89 -36 -160
-33 -201 3 -29 0 -45 -10 -50 -12 -7 -28 -48 -41 -109 -3 -14 -14 -36 -25 -49
-18 -24 -20 -24 -44 -8 -22 14 -26 14 -46 0 -27 -19 -78 -11 -114 17 -18 14
-41 20 -76 20 -31 0 -63 7 -85 20 -34 19 -109 30 -122 18 -3 -4 -18 -2 -32 3
-20 8 -28 7 -34 -6 -10 -17 -35 -20 -40 -4 -4 12 -70 39 -103 42 -13 2 -19 9
-18 20 1 23 -45 47 -56 29 -4 -6 -17 -9 -29 -5 -27 7 -19 23 11 24 21 0 21 1
2 9 -11 5 -37 9 -57 9 -31 1 -39 5 -44 26 -4 16 -13 25 -25 25 -10 0 -19 4
-19 8 0 5 -15 14 -34 22 -19 7 -37 21 -39 32 -3 11 -14 18 -29 18 -12 0 -43 6
-69 14 -46 14 -116 16 -111 3 1 -4 4 -12 6 -19 14 -45 41 -114 46 -118 13 -10
40 -110 40 -145 l0 -37 -37 5 c-84 13 -110 21 -147 51 l-38 31 -177 -3 c-126
-3 -184 -8 -205 -18 -38 -18 -85 -18 -92 0 -4 11 -12 13 -31 5 -13 -5 -29 -7
-34 -3 -15 9 -11 114 6 130 8 9 15 24 15 35 0 10 9 28 20 39 11 11 17 26 14
34 -3 8 5 36 17 63 28 58 39 177 19 197 -6 6 -5 16 2 29 5 11 8 35 5 54 -7 44
17 189 37 228 9 17 29 48 44 70 24 33 34 40 63 40 19 0 43 -4 53 -10 107 -55
131 -72 134 -92 2 -12 12 -25 22 -28 10 -3 28 -21 39 -40 24 -41 41 -45 41
-10 0 14 -3 25 -7 25 -5 0 -13 11 -20 25 -14 31 2 34 18 3 6 -11 23 -32 37
-45 23 -22 24 -24 9 -41 -34 -38 -18 -45 94 -46 10 0 15 -5 12 -13 -5 -12 11
-18 47 -15 8 1 44 -3 80 -8 36 -5 98 -12 138 -15 67 -6 73 -5 70 12 -2 13 2
17 15 15 24 -4 208 38 225 51 7 6 33 10 58 10 30 0 44 5 44 14 0 7 -7 13 -16
13 -14 0 -14 3 -4 15 7 8 19 15 27 15 7 0 17 8 20 18 4 9 17 27 30 40 23 21
24 26 15 85 -6 36 -6 66 -1 71 5 6 2 17 -6 27 -15 15 -10 17 60 21 61 4 80 9
100 28 14 13 25 29 25 37 0 7 4 13 10 13 20 0 44 67 47 131 l3 67 -31 6 c-20
4 -33 13 -36 26 -3 13 -11 19 -19 16 -9 -3 -14 2 -14 14 0 16 -7 20 -30 20
-21 0 -30 5 -30 16 0 14 -8 16 -57 11 -41 -4 -66 -2 -83 8 -14 8 -34 14 -46
15 -11 0 -29 9 -39 20 -10 11 -20 18 -24 16 -3 -2 -24 -1 -45 3 -36 6 -38 7
-24 22 19 18 12 35 -17 41 -14 2 -1 11 40 26 64 23 112 22 152 -4 14 -9 23
-10 25 -3 6 19 85 -9 118 -41 17 -17 36 -30 43 -30 7 0 23 -9 35 -20 11 -11
24 -16 27 -11 6 11 -4 83 -14 97 -13 19 -87 71 -131 92 -25 12 -44 25 -43 29
2 5 -5 8 -15 9 -28 2 -52 15 -52 30 0 8 -7 14 -15 14 -8 0 -15 3 -15 8 0 24
-137 42 -151 20 -4 -6 -33 -11 -65 -12 -33 0 -62 -5 -66 -10 -3 -5 -30 -10
-58 -10 -35 -1 -56 -6 -63 -17 -15 -20 -57 -35 -57 -20 0 15 -16 14 -32 -2 -7
-8 -31 -17 -53 -20 -22 -4 -41 -11 -43 -17 -2 -5 -9 -10 -15 -10 -6 0 -18 -7
-28 -16 -9 -8 -33 -16 -53 -17 -20 -1 -38 -8 -41 -15 -3 -9 -23 -12 -62 -11
-56 1 -155 -6 -220 -17 -20 -3 -33 -11 -33 -19 0 -11 -8 -13 -30 -8 -24 4 -36
1 -51 -16 -21 -22 -54 -28 -64 -11 -8 13 -45 13 -45 0 0 -5 8 -13 18 -19 16
-9 16 -11 0 -27 -15 -16 -19 -16 -40 -2 -20 13 -28 14 -48 3 -16 -9 -49 -12
-95 -9 -38 2 -70 4 -70 5 0 0 -36 3 -80 5 -44 2 -90 9 -102 15 -27 14 -73 4
-73 -16 0 -21 -95 -21 -104 0 -3 8 -12 15 -21 15 -8 0 -15 6 -15 14 0 8 -6 17
-12 19 -7 3 4 3 25 0 32 -5 36 -3 31 11 -3 9 -14 16 -24 16 -15 0 -17 7 -13
48 3 26 9 51 14 57 5 5 9 19 9 31 0 12 7 27 15 34 8 6 14 15 13 18 -5 23 16
62 33 62 20 0 26 15 9 25 -18 11 -11 35 10 35 14 0 20 7 20 24 0 13 14 49 31
80 23 45 27 61 19 71 -15 18 -5 34 26 45 13 5 24 17 24 26 0 10 5 14 14 11 10
-4 13 -1 9 9 -3 8 -12 13 -19 10 -8 -3 -14 0 -14 7 0 7 12 18 28 24 25 10 25
11 5 12 -25 1 -30 20 -11 39 9 9 9 12 1 12 -8 0 -11 18 -8 55 4 50 2 57 -18
65 -18 8 -15 9 16 8 39 -2 67 19 45 34 -14 8 5 58 22 58 5 0 10 7 10 15 0 8 7
15 15 15 8 0 15 7 15 15 0 10 -10 15 -30 15 -16 0 -30 -4 -30 -10 0 -5 4 -10
9 -10 17 0 -1 -39 -20 -45 -10 -4 -19 -13 -19 -21 0 -8 -7 -14 -15 -14 -26 0
-16 27 18 49 29 19 30 21 10 21 -13 0 -23 6 -23 14 0 20 28 46 49 46 10 0 25
7 32 16 9 12 24 15 51 11 23 -3 38 -1 38 6 0 5 8 3 18 -6 10 -10 34 -18 53
-18 l34 -2 -35 -6 c-20 -3 -30 -9 -24 -13 15 -10 124 13 124 26 0 5 -7 18 -17
28 -15 17 -15 18 5 18 12 0 22 5 22 11 0 8 16 10 49 5 48 -6 50 -6 48 18 -3
38 18 36 21 -1 3 -35 5 -36 40 -27 15 4 21 12 17 21 -4 13 1 14 32 8 46 -8 52
-13 33 -25 -11 -7 -9 -10 12 -10 15 0 29 4 33 9 3 6 30 21 60 35 29 14 57 31
60 36 10 15 35 12 35 -5 0 -8 7 -15 15 -15 25 0 17 20 -12 32 -38 16 -39 18
-23 28 10 6 24 -2 49 -28 29 -30 36 -45 37 -78z m330 -2761 c9 -10 40 -32 68
-49 56 -33 67 -56 41 -84 -14 -16 -14 -18 0 -24 11 -4 14 -2 9 6 -4 6 -3 8 3
5 6 -4 13 -19 16 -34 4 -21 0 -32 -15 -44 -24 -19 -15 -43 13 -34 13 4 19 2
19 -9 0 -9 -7 -16 -15 -16 -14 0 -19 -14 -18 -47 0 -7 -7 -15 -17 -18 -10 -3
-20 -15 -23 -25 -6 -23 -43 -26 -141 -10 -33 5 -100 15 -149 21 -48 6 -90 15
-93 20 -3 5 1 9 9 9 8 0 22 9 32 20 10 11 24 20 30 20 15 0 23 44 17 94 -3 26
-9 36 -21 36 -10 0 -23 12 -30 26 -8 18 -17 25 -30 21 -24 -6 -46 7 -37 22 5
7 20 9 40 5 20 -3 47 0 69 10 22 9 37 11 37 5 0 -18 18 -5 42 30 21 31 52 47
120 60 4 0 14 -7 24 -16z m-1895 -513 c24 0 29 -4 29 -25 0 -22 4 -25 39 -25
22 0 42 -3 45 -8 13 -21 -56 -122 -84 -122 -7 0 -21 -11 -32 -25 -11 -14 -25
-25 -31 -25 -7 0 -34 -20 -62 -45 -27 -25 -55 -45 -61 -45 -7 0 -14 -7 -18
-15 -8 -21 -26 -19 -26 4 0 11 -5 21 -12 23 -6 2 -14 24 -17 49 l-6 44 -14
-41 -13 -42 43 -58 44 -59 -4 -162 c-3 -136 -1 -163 11 -163 8 0 18 4 24 8 5
5 38 19 74 31 36 13 74 27 85 32 41 17 153 39 250 49 55 5 141 17 190 26 50 9
106 14 126 11 41 -5 79 -37 79 -65 0 -18 30 -60 83 -115 23 -23 34 -28 57 -24
18 4 32 1 40 -8 7 -8 18 -15 24 -15 20 0 71 -62 91 -110 20 -47 55 -103 68
-108 4 -2 7 -9 7 -16 0 -7 9 -21 20 -31 11 -10 20 -24 20 -32 0 -7 5 -13 10
-13 6 0 10 -4 10 -9 0 -5 16 -35 36 -67 35 -59 36 -60 31 -149 -3 -49 -11
-111 -18 -136 -11 -40 -10 -58 4 -120 20 -93 20 -510 -1 -531 -6 -6 -12 -20
-12 -29 0 -29 -20 -33 -38 -8 -9 13 -18 28 -19 34 -1 5 -13 46 -26 90 -23 76
-24 93 -22 315 1 129 -1 245 -6 256 -9 25 8 102 27 125 24 27 16 39 -24 39
-26 0 -43 7 -57 23 -48 54 -75 99 -76 124 0 29 -17 78 -18 56 -1 -7 -9 -13
-19 -13 -10 0 -31 -13 -47 -30 -16 -16 -35 -30 -42 -30 -7 0 -13 -4 -13 -9 0
-6 -8 -10 -17 -11 -66 -5 -96 -2 -109 12 -21 21 -78 2 -68 -22 4 -8 9 -36 11
-61 5 -40 1 -52 -26 -89 -21 -29 -31 -55 -31 -78 0 -37 -23 -72 -47 -72 -17 0
-16 -4 3 -41 30 -59 46 -332 38 -669 -7 -346 -8 -359 -18 -382 -5 -10 -6 -36
-4 -58 2 -22 0 -41 -4 -42 -5 -2 -9 -22 -11 -45 -1 -24 -5 -43 -9 -43 -3 0 -9
-14 -13 -31 -10 -45 -77 -121 -99 -113 -6 2 -29 -2 -51 -10 -46 -16 -55 -40
-32 -85 9 -18 11 -33 6 -38 -5 -5 -9 -27 -8 -49 2 -88 -1 -128 -9 -133 -5 -3
-13 -31 -17 -61 -4 -30 -11 -57 -16 -60 -4 -3 -13 -50 -19 -105 -6 -55 -13
-112 -16 -127 -5 -23 -2 -29 27 -42 l34 -14 -37 -1 -38 -1 0 -45 c0 -34 5 -47
20 -55 25 -14 26 -30 1 -23 -16 4 -20 -2 -26 -37 -6 -35 -3 -45 15 -64 l21
-23 -24 4 c-23 5 -24 2 -31 -76 -3 -44 -13 -123 -20 -174 -8 -51 -17 -142 -21
-202 -6 -98 -16 -159 -31 -199 -3 -8 4 -15 20 -18 17 -4 23 -1 19 9 -7 18 0
17 41 -8 20 -12 36 -28 36 -36 0 -8 -3 -13 -7 -11 -5 2 -21 10 -37 18 -23 11
-30 12 -34 2 -2 -6 -12 -12 -22 -12 -18 0 -28 -17 -35 -62 -14 -88 -37 -245
-45 -308 -9 -68 -29 -199 -45 -290 -15 -90 -47 -316 -69 -490 -8 -63 -17 -128
-20 -145 -4 -16 -11 -73 -16 -125 -5 -52 -14 -115 -19 -140 -5 -25 -10 -72
-12 -105 -1 -33 -6 -68 -11 -77 -4 -9 -10 -77 -13 -150 -3 -73 -8 -185 -11
-248 -4 -63 -8 -138 -9 -166 -1 -28 -6 -88 -10 -135 -4 -46 -9 -106 -11 -134
-12 -205 -27 -351 -36 -356 -6 -4 -8 -14 -5 -22 3 -8 3 -18 0 -21 -3 -3 -7
-20 -9 -38 -1 -18 -7 -53 -13 -78 -6 -25 -15 -72 -22 -106 -11 -61 -46 -121
-56 -97 -3 10 -8 10 -19 -1 -16 -17 -19 -36 -4 -36 6 0 10 -7 10 -16 0 -13 -5
-11 -24 9 -23 25 -42 72 -25 61 5 -3 13 -2 19 1 9 6 6 13 -27 50 -17 19 -16
25 5 25 26 0 52 53 45 95 -8 48 -21 53 -38 13 l-14 -33 -1 48 c0 35 -3 47 -12
43 -7 -3 -21 -9 -31 -12 -13 -5 -17 -13 -13 -28 3 -11 6 -33 6 -48 0 -31 16
-38 23 -11 3 12 5 9 6 -8 1 -18 -7 -32 -24 -43 -29 -19 -39 -20 -32 -3 17 47
18 57 2 57 -12 0 -14 4 -5 19 14 27 13 41 -5 41 -8 0 -15 -9 -15 -19 0 -27
-13 -33 -35 -17 -18 13 -18 14 3 25 12 6 22 16 22 21 0 14 -34 12 -48 -2 -6
-6 -15 -9 -19 -5 -11 11 20 59 44 68 13 5 23 16 23 25 0 13 -3 14 -14 5 -10
-8 -16 -9 -21 -1 -3 5 -15 10 -26 10 -10 0 -19 7 -19 15 0 9 9 15 23 15 20 0
22 5 23 50 1 28 -3 50 -7 50 -5 0 -9 16 -9 35 0 19 -5 45 -11 59 -8 16 -8 33
-1 53 l10 28 11 -27 c6 -16 15 -28 21 -28 16 0 12 47 -7 83 l-16 32 -10 -29
c-7 -21 -12 -25 -18 -15 -15 23 -10 39 14 49 l22 9 -22 0 c-16 1 -23 7 -23 21
0 11 7 20 15 20 10 0 15 11 15 35 0 23 -5 35 -14 35 -8 0 -16 6 -19 14 -4 11
3 16 26 18 20 2 32 8 32 18 0 8 -6 14 -13 12 -6 -1 -12 4 -12 12 0 24 -25 63
-38 58 -14 -4 -16 24 -2 33 16 10 11 77 -7 97 -13 15 -14 21 -4 31 9 9 14 9
21 -3 8 -12 10 -9 10 12 0 15 5 30 11 34 8 4 8 9 0 17 -13 13 -15 87 -2 87 5
0 8 35 8 77 -1 43 2 97 7 121 7 36 6 42 -8 42 -11 0 -16 -9 -16 -31 0 -26 -2
-29 -14 -20 -12 10 -12 16 -1 38 16 30 12 188 -5 208 -5 6 -12 30 -16 53 -7
46 -20 54 -33 20 -5 -14 -10 -18 -15 -10 -4 7 2 28 14 47 18 29 19 35 6 35
-20 0 -10 27 13 35 15 4 18 15 16 58 -3 74 -3 75 -22 73 -14 -1 -17 5 -15 26
2 20 -2 27 -15 28 -90 4 -110 6 -120 13 -21 13 -15 26 8 20 21 -6 21 -4 15 41
-5 32 -3 52 5 62 9 11 8 21 -4 45 -15 31 -15 31 -26 10 -14 -25 -31 -20 -24 7
4 18 -22 50 -33 40 -3 -3 -8 -23 -11 -44 -3 -22 -11 -42 -17 -47 -8 -5 -6 -11
5 -20 20 -16 32 -47 17 -47 -15 0 -37 31 -38 53 0 9 -13 25 -30 36 -30 18 -30
31 -1 31 17 0 44 47 35 61 -8 13 -42 11 -47 -3 -2 -9 -27 -13 -78 -12 -41 1
-62 -1 -48 -3 15 -2 34 -12 43 -22 13 -15 14 -22 3 -44 -14 -31 -59 -37 -87
-12 -15 14 -18 14 -30 0 -7 -8 -23 -15 -37 -15 -13 0 -26 -7 -29 -15 -4 -10
-15 -13 -37 -9 -30 5 -31 5 -13 -10 15 -12 17 -18 7 -30 -10 -12 -9 -19 6 -34
10 -10 26 -22 36 -25 10 -4 15 -11 12 -17 -4 -6 -13 -7 -20 -2 -19 10 -95 3
-95 -9 0 -5 7 -12 15 -15 8 -4 15 -10 15 -15 0 -12 -32 1 -53 23 -19 20 -37
24 -37 8 0 -5 7 -10 15 -10 8 0 15 -9 15 -20 0 -11 -4 -20 -10 -20 -5 0 -15 9
-22 20 -14 23 -28 26 -28 7 0 -7 14 -24 30 -39 20 -17 30 -22 30 -12 0 8 9 14
20 14 22 0 27 -15 9 -26 -8 -4 -8 -9 0 -17 6 -6 11 -15 11 -20 0 -5 -7 -1 -16
7 -16 17 -84 22 -84 7 0 -19 -35 -22 -47 -5 -12 16 -13 15 -13 -9 0 -15 -9
-36 -20 -47 -22 -22 -40 -26 -40 -9 0 5 -5 7 -11 3 -7 -4 -8 -20 -4 -41 5 -30
4 -35 -9 -30 -11 5 -16 1 -16 -12 0 -11 5 -21 11 -23 15 -5 -31 -97 -48 -98
-7 0 -13 5 -13 10 0 6 5 10 10 10 6 0 10 7 10 15 0 8 -4 15 -10 15 -5 0 -10
-7 -10 -15 0 -8 -20 -34 -45 -58 -25 -24 -45 -50 -45 -58 -1 -9 -8 -5 -21 10
-22 27 -39 20 -21 -9 16 -26 15 -40 -3 -40 -18 0 -20 -26 -2 -33 9 -4 8 -8 -3
-16 -12 -9 -16 -4 -18 23 -2 19 -9 37 -17 40 -23 8 -45 -50 -45 -119 0 -34 -3
-65 -7 -69 -5 -4 -8 -11 -9 -14 0 -4 -4 -15 -8 -24 -5 -10 -5 -25 -2 -33 10
-28 -23 -28 -59 -1 -37 28 -49 23 -15 -7 11 -9 20 -23 20 -31 0 -8 7 -16 15
-20 19 -7 19 -36 0 -36 -8 0 -15 7 -15 15 0 20 -30 32 -40 15 -12 -20 -30 -2
-30 31 0 16 -5 29 -11 29 -7 0 -9 -9 -6 -22 4 -12 1 -28 -6 -36 -12 -15 -27
-40 -48 -80 -7 -12 -9 -25 -4 -30 4 -4 10 -1 12 6 3 6 16 12 29 12 17 0 24 6
24 20 0 11 5 20 11 20 20 0 1 -61 -26 -82 -14 -11 -25 -25 -25 -32 0 -7 -16
-12 -40 -13 -30 -2 -40 2 -40 14 0 12 3 13 14 4 11 -9 15 -6 19 16 3 16 4 30
2 31 -7 7 -45 -10 -45 -19 0 -13 -20 -34 -40 -42 -12 -4 -12 -6 1 -6 24 -1 33
-31 10 -31 -11 0 -21 6 -24 13 -3 6 -3 -4 -2 -24 4 -48 -9 -71 -27 -47 -10 14
-20 16 -43 10 -32 -9 -35 -29 -3 -24 10 2 18 -1 18 -6 0 -11 -34 -22 -72 -22
-18 0 -28 -5 -28 -15 0 -8 -4 -15 -9 -15 -5 0 -12 -11 -15 -24 -4 -17 -15 -26
-37 -31 -29 -7 -30 -8 -24 -48 6 -34 5 -40 -6 -29 -15 14 -59 16 -59 2 0 -5
-7 -10 -15 -10 -8 0 -15 -4 -15 -10 0 -5 -7 -10 -15 -10 -18 0 -20 -31 -3 -48
6 -6 9 -15 5 -18 -3 -4 -13 1 -22 10 -25 25 -58 3 -53 -35 3 -16 1 -29 -4 -29
-4 0 -8 -9 -8 -21 0 -26 -24 -20 -28 7 -6 32 -22 41 -35 19 -7 -11 -12 -29
-12 -40 0 -11 -6 -20 -12 -21 -7 -1 -17 -2 -23 -3 -6 -1 -6 -11 1 -28 6 -16
10 -30 10 -33 1 -11 -37 -15 -58 -6 -25 12 -32 46 -8 46 8 0 15 9 15 20 0 11
-7 20 -15 20 -8 0 -15 4 -15 9 0 5 -3 23 -7 41 -4 24 -3 31 6 26 8 -6 10 -1 6
17 -5 17 -2 26 9 30 10 4 16 19 16 42 0 47 -12 44 -35 -7 -10 -24 -25 -48 -33
-54 -8 -6 -16 -25 -17 -43 -2 -17 -9 -40 -17 -49 -19 -22 -48 -86 -48 -105 0
-8 -13 -41 -30 -73 -16 -32 -30 -75 -31 -94 -1 -22 -3 -27 -6 -13 -5 28 -33
53 -33 30 0 -18 -39 -49 -52 -41 -30 19 13 91 47 78 15 -6 16 -4 6 15 -7 12
-17 19 -23 15 -13 -8 -2 32 18 63 12 19 12 24 -2 38 -10 10 -13 22 -8 33 4 9
8 22 9 27 6 29 18 55 26 55 5 0 9 14 9 31 0 17 9 68 20 113 10 44 21 125 22
179 2 73 6 96 15 92 10 -3 13 12 13 56 0 33 4 68 9 77 5 9 12 43 16 75 6 50 5
56 -8 51 -9 -3 -18 -15 -20 -27 -3 -12 -3 -3 -1 21 2 24 11 50 19 58 8 9 16
32 17 52 3 72 14 126 32 154 8 14 8 21 -2 26 -13 9 -6 102 9 102 4 0 6 18 4
40 -3 29 1 42 13 49 14 8 15 12 3 35 -11 20 -11 28 -2 40 7 8 9 25 5 40 -5 21
-3 25 9 21 19 -8 28 28 20 77 -4 26 -1 45 11 62 20 31 20 36 1 36 -19 0 -19
19 0 44 8 11 15 30 15 42 0 13 4 26 10 29 13 8 13 41 -1 63 -9 15 -8 31 6 73
10 30 21 56 24 59 13 11 31 51 30 67 0 11 -3 13 -6 5 -7 -19 -23 -4 -23 24 0
15 6 24 15 24 8 0 15 4 15 10 0 5 -7 7 -15 4 -12 -5 -15 3 -15 35 0 33 3 41
19 41 10 0 23 6 28 13 12 14 28 75 17 65 -14 -15 -44 14 -54 54 -10 35 -9 43
4 50 23 13 20 31 -5 25 -23 -6 -38 18 -21 35 9 9 8 15 0 26 -10 11 -9 17 5 27
19 14 13 25 -15 25 -10 0 -18 3 -18 8 0 14 17 33 26 30 5 -2 10 1 11 7 2 5 -5
10 -15 10 -10 0 -18 9 -20 24 -4 26 48 142 60 135 4 -3 8 8 8 24 0 32 33 62
69 62 11 0 24 6 28 13 10 16 89 58 117 61 12 1 28 5 36 9 8 3 52 13 98 22 116
22 573 22 693 -1 46 -8 94 -21 108 -28 15 -7 34 -11 44 -9 11 3 17 -1 17 -12
0 -12 -6 -16 -20 -12 -11 3 -20 1 -20 -3 0 -21 14 -40 29 -40 14 -1 13 -3 -3
-15 -11 -9 -14 -15 -7 -15 8 0 11 -10 10 -28 -2 -15 1 -33 5 -41 6 -9 0 -20
-17 -35 -35 -29 -51 -64 -38 -80 12 -15 1 -92 -23 -161 -8 -22 -17 -52 -20
-67 -3 -15 -13 -33 -20 -41 -8 -8 -16 -37 -17 -66 -2 -38 -8 -56 -25 -72 -12
-12 -20 -27 -17 -35 9 -23 19 -16 38 27 10 22 31 51 47 64 15 13 28 28 28 34
0 6 7 11 15 11 17 0 20 41 6 69 -6 10 -6 23 0 32 7 11 9 11 9 0 0 -11 3 -11
15 -1 14 11 13 14 -1 25 -15 11 -15 13 2 33 10 12 24 22 31 22 15 0 17 16 3
25 -13 8 6 48 53 114 33 44 36 52 18 46 -12 -3 -21 -4 -21 0 0 15 31 63 43 68
11 4 13 17 10 49 -4 37 -1 47 22 72 18 20 23 31 15 36 -9 5 -7 16 6 41 10 19
17 49 15 67 -1 17 3 32 8 32 6 0 15 18 21 39 6 22 18 57 27 78 9 21 16 46 14
56 -1 9 2 17 8 17 5 0 12 14 16 31 4 17 13 42 21 57 8 15 14 36 14 47 1 11 7
31 15 45 8 14 14 37 15 52 0 15 4 29 9 33 5 3 13 20 16 38 8 38 60 190 80 232
7 17 17 42 20 58 4 15 11 30 16 33 5 3 9 13 9 22 0 10 9 36 20 57 12 22 19 48
16 58 -2 9 1 17 8 17 7 0 20 19 30 43 28 69 49 107 58 107 4 0 8 8 8 17 0 24
23 83 32 83 4 0 8 6 8 14 0 8 11 33 25 57 16 29 22 52 18 67 -3 14 -1 27 6 32
7 4 15 40 18 81 3 41 9 76 13 79 4 3 10 21 13 40 6 31 20 65 50 125 7 13 6 20
-2 23 -14 5 -15 39 -1 47 6 3 7 17 4 29 -4 18 1 28 17 40 31 21 39 20 39 -5 0
-19 4 -20 35 -15 35 7 35 7 35 -29 0 -33 2 -36 23 -29 29 9 27 7 38 51 12 51
11 120 -1 128 -5 3 -7 19 -3 35 3 17 1 36 -4 42 -6 7 -15 28 -21 46 -9 25 -8
32 2 32 17 0 40 55 31 70 -6 9 -10 9 -16 -1 -8 -11 -12 -10 -24 5 -13 17 -15
18 -15 3 0 -9 5 -17 12 -17 8 0 7 -6 -4 -16 -23 -24 -41 -8 -33 30 11 56 14
131 5 116 -7 -11 -10 -4 -10 23 0 37 -8 45 -26 27 -7 -7 -14 -3 -22 15 -10 21
-9 25 3 25 8 0 15 3 15 8 0 4 3 17 6 30 5 16 2 22 -10 22 -9 0 -16 -7 -16 -16
0 -14 -3 -14 -15 -4 -22 18 -15 55 10 55 15 0 21 8 23 34 3 31 2 33 -13 21
-28 -24 -40 3 -39 91 1 75 10 104 34 104 5 0 16 9 24 20 14 17 17 18 26 5 8
-13 10 -13 10 3 0 9 -7 17 -15 17 -8 0 -15 5 -15 10 0 7 -6 7 -19 1 -10 -6
-21 -7 -25 -4 -3 3 -6 1 -6 -5 0 -7 -4 -12 -9 -12 -5 0 -15 25 -22 56 -10 44
-10 60 -1 75 9 13 9 25 3 38 -10 18 -12 46 -12 194 0 54 4 87 10 87 15 0 14
27 -1 32 -8 3 -6 7 5 11 11 4 20 -1 27 -13 17 -32 40 -25 40 13 0 17 3 42 6
55 4 15 2 22 -8 22 -16 0 -56 50 -75 93 -16 37 -29 34 -37 -8 -4 -21 -13 -35
-21 -35 -16 0 -20 16 -6 24 5 3 12 21 15 41 4 19 14 38 22 43 10 6 15 25 16
60 1 30 7 57 15 63 7 6 13 20 13 31 0 10 7 21 15 24 8 4 15 17 15 29 0 13 5
36 10 51 6 15 12 48 14 73 1 25 12 67 24 93 12 26 22 51 22 56 0 5 9 17 19 26
11 10 23 32 27 49 7 35 81 184 95 193 5 3 9 16 9 30 0 13 3 24 8 24 4 0 14 13
23 29 10 17 28 31 45 34 64 13 121 33 149 54 38 27 130 53 169 47 16 -2 41 -4
57 -4z m2229 -370 c0 -5 28 -9 66 -7 l67 2 3 -35 c1 -19 0 -29 -3 -23 -3 9
-10 10 -23 3 -21 -11 -17 -42 4 -34 7 3 21 -4 31 -16 21 -23 45 -12 45 21 0
12 5 16 15 13 9 -4 15 -19 15 -40 0 -28 -5 -37 -27 -47 -39 -17 -56 -35 -49
-52 4 -10 -1 -15 -14 -15 -13 0 -22 -9 -26 -25 -3 -14 -11 -25 -17 -25 -5 0
-24 -16 -41 -36 -28 -33 -37 -37 -90 -40 -32 -2 -64 -8 -72 -15 -10 -8 -26 -8
-61 0 -27 6 -95 13 -153 16 -70 3 -108 9 -115 18 -11 14 -45 11 -45 -4 0 -5
-13 -9 -30 -9 -32 0 -37 9 -18 28 8 8 5 14 -15 23 -15 7 -27 19 -27 28 0 12 3
12 12 3 14 -14 68 -16 68 -2 0 6 -6 10 -14 10 -24 0 -30 21 -7 27 11 3 19 9
16 13 -7 11 15 26 60 40 22 7 46 17 52 22 7 6 20 8 28 4 8 -3 25 5 38 18 14
14 42 26 70 30 26 4 47 11 47 15 0 5 16 12 36 16 20 3 54 17 75 31 21 13 45
24 53 24 8 0 16 7 20 15 6 17 26 21 26 5z m2781 -22 l0 -23 9 23 c10 23 26 28
48 13 13 -8 13 -61 -4 -246 -2 -33 -11 -132 -19 -220 -7 -88 -14 -161 -14
-162 -1 -2 -8 -3 -16 -3 -22 0 -35 -33 -35 -89 0 -42 -3 -51 -18 -51 -32 0
-42 22 -42 87 0 47 -4 65 -15 69 -9 4 -15 19 -15 38 0 47 -11 76 -27 76 -12 0
-12 2 1 16 25 25 32 65 12 76 -25 14 -20 67 8 93 32 29 42 63 22 71 -9 3 -16
15 -16 25 0 12 -5 16 -15 13 -25 -10 -17 17 12 39 15 12 36 20 46 19 12 -2 18
1 15 10 -3 7 4 37 14 65 10 29 18 59 18 68 0 25 30 17 31 -7z m-21 -864 c10
-36 11 -53 2 -78 -7 -18 -12 -40 -12 -49 0 -9 -4 -17 -10 -17 -5 0 -10 -13
-10 -30 0 -20 -5 -30 -15 -30 -10 0 -15 -10 -15 -30 0 -19 -7 -33 -20 -40 -31
-16 -47 29 -53 148 -6 118 -2 142 23 142 10 0 33 7 51 15 47 20 45 21 59 -31z
m1537 -353 c15 -17 23 -38 23 -61 0 -19 3 -51 6 -71 6 -35 5 -37 -31 -49 -44
-15 -65 0 -85 59 -14 44 -3 93 30 129 11 12 20 27 21 34 0 9 2 9 6 -2 3 -8 17
-26 30 -39z m-3287 -146 c0 -8 4 -15 10 -15 5 0 9 -9 7 -21 -3 -27 30 -50 42
-30 7 10 13 11 27 2 18 -10 18 -10 0 -11 -14 0 -17 -5 -12 -25 5 -18 -1 -33
-25 -60 -17 -19 -37 -35 -43 -35 -7 0 -18 -11 -24 -25 -6 -14 -16 -25 -22 -25
-5 0 -10 -7 -10 -15 0 -8 -4 -15 -9 -15 -5 0 -12 -12 -16 -27 -9 -38 -31 -60
-71 -73 -23 -8 -31 -16 -27 -26 3 -8 -2 -23 -12 -34 -18 -20 -45 -17 -45 6 0
10 -12 14 -40 14 -29 0 -40 4 -40 15 0 8 -8 15 -19 15 -10 0 -24 -7 -31 -15
-7 -8 -19 -15 -26 -15 -8 0 -14 -4 -14 -9 0 -15 -63 -71 -79 -71 -9 0 -24 -7
-35 -15 -13 -10 -25 -11 -43 -4 -44 16 -91 11 -98 -11 -4 -11 -11 -17 -17 -14
-13 8 -85 -62 -92 -91 -3 -13 1 -39 9 -59 9 -21 11 -36 5 -36 -5 0 -10 -6 -10
-12 0 -14 -24 -18 -120 -20 l-65 -1 2 34 c7 94 16 149 24 149 5 0 9 17 9 39 0
22 6 44 15 51 8 7 15 17 15 22 0 5 7 16 15 24 8 9 15 24 15 35 0 32 19 59 42
59 20 0 21 -5 7 -60 -3 -12 4 -14 36 -12 21 2 51 10 65 17 49 27 119 55 139
55 10 0 21 6 24 13 3 10 9 10 26 0 35 -21 62 -17 58 10 -2 12 -2 16 0 10 6
-19 40 -16 61 5 24 25 59 91 67 130 3 17 11 32 16 32 5 0 9 10 10 23 0 12 3
16 6 9 4 -10 8 -10 19 -1 11 9 14 8 14 -6 0 -15 6 -17 43 -12 26 4 48 2 54 -4
12 -12 53 4 53 21 0 4 14 11 30 15 17 4 30 11 30 16 0 5 7 9 15 9 17 0 20 21
4 37 -8 8 -7 17 3 32 15 25 28 27 28 6z m4007 -85 c7 -25 70 -29 79 -5 4 8 12
15 20 15 8 0 14 -7 14 -15 0 -8 9 -15 19 -15 13 0 21 -9 26 -30 8 -35 0 -50
-25 -50 -10 0 -22 -4 -25 -10 -10 -15 -35 -12 -35 5 0 8 -4 15 -10 15 -5 0
-10 -7 -10 -15 0 -8 -4 -15 -10 -15 -5 0 -10 6 -10 14 0 21 -18 30 -34 17 -9
-7 -16 -7 -24 1 -14 14 -16 44 -3 52 4 3 7 17 6 31 -4 30 15 34 22 5z m-2960
-47 c29 -3 57 -11 64 -19 7 -8 30 -14 60 -14 26 0 51 -4 54 -10 8 -13 52 -13
60 0 3 5 -9 19 -27 30 -33 20 -33 20 -7 20 47 0 173 -59 158 -74 -2 -2 -24 -1
-49 4 -27 5 -46 5 -48 -1 -5 -14 -69 -11 -147 7 -74 17 -152 31 -222 40 -24 4
-43 10 -43 14 0 12 40 19 70 13 14 -3 48 -7 77 -10z m-82 -78 c75 -6 160 -21
173 -29 13 -8 50 -13 162 -19 30 -2 60 -5 65 -7 6 -2 27 0 48 4 36 8 67 -4 67
-24 0 -11 -239 -3 -270 9 -25 10 -138 26 -153 23 -5 -2 -25 2 -45 7 -20 5 -63
12 -94 16 -43 5 -58 11 -58 22 0 12 7 14 33 9 17 -4 50 -9 72 -11z m-102 -87
c6 -3 19 -2 30 4 10 5 29 7 41 3 29 -10 336 -48 484 -61 50 -4 72 -10 72 -20
0 -16 -66 -13 -250 11 -230 31 -266 35 -355 39 -71 4 -87 14 -60 36 8 7 16 29
17 49 1 33 2 32 5 -9 3 -24 9 -48 16 -52z m1083 71 c56 0 116 -7 139 -15 22
-8 64 -17 93 -20 29 -4 55 -11 58 -15 9 -15 44 -10 50 6 4 8 13 15 20 15 8 0
17 6 20 14 4 10 16 13 42 10 73 -10 131 -26 142 -39 9 -11 -7 -13 -82 -11
l-93 1 -87 -62 c-48 -35 -90 -63 -95 -63 -4 0 -21 12 -38 26 l-30 25 35 -4
c25 -3 45 3 72 21 45 29 48 42 10 42 -15 0 -38 7 -50 16 -17 12 -26 13 -36 5
-14 -11 -138 -7 -159 6 -6 4 -8 0 -4 -10 4 -11 1 -17 -7 -17 -15 0 -43 29 -30
31 10 1 -55 17 -105 26 -24 4 -29 8 -20 14 8 5 23 7 35 4 11 -2 65 -5 120 -6z
m643 -114 c25 -14 25 -14 -24 -15 -77 0 -118 -16 -218 -84 -82 -56 -116 -84
-231 -190 -26 -23 -32 -25 -34 -11 -2 9 -9 14 -16 12 -6 -3 -20 1 -31 9 -22
16 -73 18 -108 5 -31 -12 -54 1 -33 18 8 7 20 10 26 6 5 -3 20 1 32 9 32 23
62 20 96 -9 l30 -25 55 64 c31 34 93 88 139 119 46 30 94 66 107 78 13 12 37
26 55 30 40 10 122 2 155 -16z m-1757 -36 c5 -3 36 -4 69 -2 35 1 70 -2 82
-10 23 -13 29 -13 182 -22 55 -3 109 -8 120 -12 11 -4 36 -8 55 -9 101 -7 174
-20 178 -32 3 -11 -12 -13 -74 -8 -44 3 -95 8 -114 11 -19 3 -69 9 -110 14
-41 5 -82 11 -90 14 -8 3 -53 9 -100 12 -142 11 -154 13 -185 22 -21 7 -31 16
-32 34 -2 14 0 18 4 9 3 -8 10 -18 15 -21z m1863 -49 c0 -11 -15 -17 -50 -21
-65 -8 -134 -34 -204 -75 -31 -19 -69 -40 -86 -48 -49 -25 -155 -135 -155
-162 0 -16 -97 -105 -124 -113 -35 -11 -166 -20 -166 -11 0 14 66 40 103 40
35 0 51 8 99 48 31 26 57 51 57 55 1 14 84 103 142 153 67 57 199 130 259 143
59 13 125 8 125 -9z m-1685 -60 c9 -5 54 -11 100 -15 47 -4 92 -9 100 -12 8
-2 38 -6 65 -7 185 -11 255 -20 255 -33 0 -11 -24 -13 -117 -12 -65 1 -122 5
-128 9 -5 4 -66 13 -133 19 -68 6 -131 15 -140 20 -10 4 -46 11 -81 15 -70 7
-83 12 -62 26 16 9 117 2 141 -10z m1808 -12 c2 -13 -8 -17 -50 -21 -86 -9
-118 -18 -180 -53 -33 -19 -61 -34 -63 -34 -4 0 -109 -67 -196 -125 -91 -61
-119 -76 -119 -66 0 13 62 71 75 71 6 0 24 14 40 30 16 17 33 30 38 30 5 0 37
23 72 50 35 28 70 50 78 50 9 0 19 5 23 11 7 11 43 29 124 60 59 23 153 21
158 -3z m-3332 -64 c6 -8 14 -14 17 -14 11 0 47 -34 47 -44 0 -5 10 -17 22
-27 l21 -19 -24 -1 c-13 -1 -32 -1 -41 0 -26 3 -22 -17 4 -21 29 -4 35 -28 9
-35 -12 -3 -21 -12 -21 -19 0 -8 -7 -14 -16 -14 -12 0 -15 6 -10 25 4 14 4 25
0 25 -3 0 -28 -11 -56 -25 -57 -29 -86 -32 -94 -10 -4 8 -12 15 -20 15 -30 0
-15 30 64 120 34 40 39 55 20 64 -7 3 5 3 27 0 22 -4 45 -12 51 -20z m1539
-19 c20 -12 67 -21 155 -29 25 -2 70 -6 100 -10 30 -3 99 -7 152 -8 54 -2 98
-6 98 -9 0 -24 -286 -32 -315 -10 -5 5 -48 11 -94 14 -46 3 -87 10 -90 16 -7
11 -129 33 -142 26 -4 -3 -10 -1 -14 5 -17 28 106 33 150 5z m1876 15 c21 0
27 -30 7 -31 -105 -4 -205 -36 -299 -97 -15 -9 -48 -30 -75 -47 -27 -16 -60
-40 -74 -52 -14 -13 -30 -23 -36 -23 -6 0 -19 -9 -29 -20 -10 -11 -22 -20 -28
-20 -8 0 -109 -70 -147 -102 -9 -7 -29 -20 -45 -28 -17 -8 -34 -16 -39 -19 -5
-2 -6 2 -1 10 14 24 48 59 58 59 5 0 26 14 47 30 21 17 42 30 46 30 5 0 23 14
41 30 18 17 37 30 43 30 6 0 24 14 40 30 16 17 33 30 38 30 5 0 24 14 42 30
18 17 38 30 43 30 5 0 22 10 37 23 75 60 226 120 284 111 16 -2 37 -4 47 -4z
m111 -96 c9 -3 19 -11 22 -19 4 -12 -9 -14 -67 -14 -66 0 -126 -14 -173 -40
-11 -5 -44 -22 -74 -36 -30 -14 -68 -36 -85 -50 -16 -14 -33 -25 -37 -25 -11
0 -100 -61 -121 -82 -10 -10 -24 -18 -31 -18 -7 0 -28 -13 -46 -30 -18 -16
-38 -30 -44 -30 -6 0 -22 -10 -36 -23 -35 -31 -128 -97 -139 -97 -4 0 -28 -14
-52 -32 -24 -18 -53 -33 -64 -34 -11 -1 -27 -4 -36 -8 -8 -4 -28 -2 -43 4 -38
14 -72 13 -88 -4 -8 -7 -30 -17 -48 -21 -32 -7 -34 -6 -20 10 8 9 23 21 35 27
11 5 31 15 45 23 35 19 140 9 140 -13 0 -12 5 -11 23 6 13 12 27 22 31 22 4 0
19 11 34 25 15 14 31 25 37 25 5 0 28 16 49 35 22 19 44 35 48 35 5 0 14 5 21
10 46 39 61 50 68 50 4 0 20 12 36 28 15 15 40 33 55 41 15 8 37 22 47 33 11
10 23 18 27 18 3 0 23 14 44 30 21 17 43 30 48 30 6 0 15 6 19 13 7 11 24 21
108 64 17 9 39 21 50 26 58 30 151 39 217 21z m-1968 -20 c11 -8 37 -14 58
-14 20 0 40 -5 43 -11 4 -5 19 -7 34 -4 15 3 40 1 55 -5 33 -12 222 -15 284
-5 62 11 53 -9 -12 -25 -72 -17 -283 -8 -416 18 -25 4 -54 13 -65 19 -11 6
-46 14 -77 17 -56 7 -72 18 -45 30 20 9 120 -5 141 -20z m2062 -89 c18 -25 8
-36 -22 -25 -54 21 -109 12 -209 -35 -16 -7 -37 -16 -45 -20 -8 -3 -33 -16
-55 -30 -22 -13 -57 -33 -78 -45 -47 -26 -159 -99 -213 -140 -23 -16 -46 -30
-52 -30 -6 0 -26 -13 -44 -30 -18 -16 -36 -30 -41 -30 -5 0 -26 -13 -46 -29
-69 -54 -141 -101 -154 -101 -8 0 -24 -11 -37 -25 -29 -31 -100 -67 -100 -51
0 14 38 43 94 71 21 11 40 26 43 33 3 6 10 12 15 12 6 0 27 14 48 30 21 17 41
30 44 30 4 0 39 26 79 58 88 70 150 114 202 143 22 12 42 25 45 29 3 3 24 17
48 30 23 13 42 27 42 31 0 4 12 12 28 18 15 7 50 25 77 41 52 31 71 40 145 71
59 25 166 22 186 -6z m-2064 -5 c34 -11 73 -20 85 -20 12 0 25 -4 28 -10 3 -5
28 -10 55 -10 27 0 51 -3 53 -8 6 -9 133 -7 170 3 21 5 33 3 44 -8 30 -30
-187 -32 -368 -3 -15 2 -37 10 -50 17 -42 22 -136 30 -196 17 -20 -5 -33 -4
-33 2 0 5 12 12 28 15 15 4 34 10 42 15 25 15 75 11 142 -10z m-2161 -27 c8
-10 41 -40 74 -68 33 -27 94 -84 136 -125 127 -124 219 -206 261 -233 29 -18
128 -24 128 -8 0 13 -84 81 -99 81 -6 0 -11 6 -11 14 0 7 -12 21 -27 31 -36
22 -193 184 -193 199 0 6 -27 34 -60 61 -33 28 -60 53 -60 58 0 4 13 7 30 7
23 0 33 -7 45 -30 9 -16 22 -30 30 -30 7 0 16 -9 20 -19 11 -34 230 -261 253
-261 7 0 15 -7 18 -15 4 -8 12 -15 20 -15 8 0 14 -4 14 -9 0 -6 14 -18 30 -28
18 -10 30 -26 30 -38 0 -19 5 -20 157 -18 197 2 401 27 425 51 7 7 25 12 42
12 28 0 29 -1 10 -15 -10 -8 -31 -15 -46 -15 -15 0 -33 -7 -42 -15 -8 -8 -23
-15 -33 -15 -10 0 -51 -7 -92 -15 -96 -21 -376 -32 -471 -20 -19 3 -84 7 -145
10 -60 2 -155 9 -210 14 -55 6 -135 11 -178 11 -76 0 -77 0 -65 21 11 17 11
23 0 26 -14 5 -81 58 -129 103 -18 16 -42 34 -53 40 -21 11 -27 30 -10 30 6 0
19 -9 30 -20 11 -11 25 -20 30 -20 6 0 10 -3 10 -7 0 -13 121 -98 185 -131 65
-34 160 -48 160 -24 0 7 -43 49 -95 93 -120 102 -170 146 -243 209 -31 27 -62
50 -67 50 -6 0 -10 5 -10 10 0 21 27 8 65 -30 21 -22 43 -40 47 -40 4 0 16 -7
26 -15 79 -68 101 -85 111 -85 6 0 11 -4 11 -8 0 -5 19 -22 43 -39 23 -17 58
-47 77 -67 19 -19 41 -36 48 -36 6 0 12 -5 12 -10 0 -19 83 -50 133 -50 56 0
62 17 16 44 -18 10 -66 52 -108 93 -124 122 -292 277 -309 287 -24 13 -25 14
-17 25 9 16 29 13 46 -6z m500 -39 c14 -13 30 -24 37 -24 6 0 29 -18 51 -40
22 -22 44 -40 50 -40 6 0 11 -7 11 -15 0 -17 30 -35 58 -35 11 0 22 -7 26 -15
3 -8 18 -15 33 -15 15 0 40 -6 55 -14 26 -14 43 -18 121 -31 29 -5 37 -10 37
-27 0 -22 3 -22 -90 2 -101 25 -216 79 -265 124 -13 11 -34 29 -47 38 -12 10
-36 28 -53 40 -16 12 -33 26 -36 31 -4 5 -17 14 -29 20 -13 7 -25 18 -28 26
-7 20 37 4 69 -25z m3746 -19 c34 -14 62 -40 63 -58 0 -5 -5 -5 -11 -1 -12 7
-59 20 -127 34 -33 8 -50 6 -73 -5 -16 -9 -29 -13 -29 -10 0 8 -99 -45 -106
-57 -3 -5 -36 -29 -73 -53 -36 -24 -102 -69 -146 -100 -44 -31 -101 -70 -127
-86 -27 -17 -48 -35 -48 -40 0 -5 -5 -9 -11 -9 -7 0 -55 -29 -108 -65 -53 -36
-101 -65 -107 -65 -6 0 -26 -13 -44 -30 -18 -16 -38 -30 -43 -30 -5 0 -26 -13
-46 -29 -34 -26 -81 -48 -81 -37 0 18 15 36 30 36 9 0 33 13 51 30 19 16 42
32 52 36 9 3 32 19 49 35 18 16 38 29 45 29 6 0 27 14 45 30 18 17 40 30 48
30 9 0 27 13 40 30 14 16 30 29 36 30 6 0 31 15 55 33 24 18 61 41 82 52 20
11 37 23 37 27 0 5 6 8 13 8 7 0 29 14 47 30 18 17 38 30 43 30 5 0 26 14 47
30 21 17 43 30 49 30 6 0 11 5 11 11 0 5 16 17 36 25 20 8 41 19 48 25 58 49
104 69 159 69 32 0 74 -7 94 -15z m-2077 -11 c19 -4 44 -13 55 -20 35 -23 297
-46 325 -29 7 4 39 9 72 10 52 2 56 1 36 -9 -29 -15 -103 -28 -178 -30 -88 -3
-243 14 -272 30 -14 8 -40 14 -56 14 -17 0 -34 5 -38 11 -4 7 -29 9 -75 4 -47
-5 -69 -4 -69 4 0 6 10 13 23 15 12 3 31 7 42 10 23 5 83 1 135 -10z m987 -70
c21 -23 26 -25 41 -12 22 19 52 30 52 18 0 -9 -47 -69 -68 -85 -7 -6 -18 -21
-25 -34 -7 -13 -15 -23 -19 -22 -5 0 -40 1 -80 1 -70 0 -71 0 -53 20 14 16 31
20 80 20 65 0 75 7 75 50 0 13 -10 20 -40 25 -21 4 -44 3 -51 -1 -19 -11 -79
-22 -79 -14 0 13 23 27 70 43 61 22 69 21 97 -9z m1092 -25 c82 -15 121 -40
121 -80 0 -5 -13 -3 -28 5 -41 21 -155 46 -210 46 -66 0 -159 -24 -193 -49
-15 -12 -34 -21 -40 -21 -18 0 40 58 65 66 12 4 28 12 36 19 26 23 121 42 160
33 19 -5 59 -14 89 -19z m-2100 0 c20 -7 52 -17 71 -25 54 -19 95 -25 227 -30
75 -2 124 0 128 6 3 6 25 10 48 10 23 1 53 7 67 15 30 17 48 19 32 3 -14 -14
-83 -38 -93 -33 -4 3 -23 -2 -43 -10 -79 -33 -377 -13 -447 31 -7 4 -47 7 -88
5 -65 -2 -73 0 -62 13 7 8 31 17 54 19 23 2 48 4 56 5 8 1 31 -3 50 -9z
m-6195 -82 c11 -10 -18 -13 -158 -14 -191 -3 -317 -25 -382 -69 -19 -13 -37
-24 -40 -24 -3 0 -21 -16 -40 -36 -37 -40 -44 -39 -16 4 63 98 165 142 352
149 58 2 110 6 115 8 20 9 157 -5 169 -18z m6233 -33 c17 -8 37 -14 45 -14 8
0 18 -4 24 -10 13 -13 196 -20 279 -9 134 17 163 19 129 10 -17 -4 -36 -11
-43 -16 -37 -22 -249 -38 -323 -24 -103 20 -112 22 -126 35 -19 20 -175 19
-191 0 -6 -8 -28 -16 -47 -18 l-35 -4 23 18 c13 10 30 18 38 18 9 0 32 8 52
19 42 21 122 19 175 -5z m2129 -10 c46 -7 104 -52 104 -80 0 -15 -2 -15 -17
-3 -46 38 -90 48 -226 51 -117 2 -138 0 -155 -15 -10 -9 -30 -17 -45 -17 -14
0 -28 -4 -32 -9 -3 -5 -20 -13 -38 -16 -17 -4 -65 -22 -106 -41 -88 -41 -102
-42 -71 -9 13 14 28 25 34 25 5 0 21 11 35 23 45 41 145 70 316 92 97 13 114
13 201 -1z m-8267 -84 c86 -19 208 -66 198 -76 -2 -3 -39 4 -81 16 -41 11 -87
20 -100 20 -14 0 -27 4 -30 8 -8 13 -68 16 -306 17 -160 0 -224 -4 -250 -14
-92 -36 -125 -55 -171 -98 -52 -48 -58 -49 -35 -5 30 58 117 117 189 129 20 3
40 10 43 14 3 5 105 9 228 9 186 0 237 -3 315 -20z m6086 6 c17 -2 44 -8 60
-14 17 -6 46 -15 66 -21 45 -14 246 -16 279 -3 14 5 35 6 46 1 15 -5 28 -3 40
6 11 8 35 14 54 13 27 0 29 -2 10 -5 -14 -3 -29 -8 -35 -13 -24 -19 -149 -40
-255 -43 -112 -3 -168 5 -221 34 -29 15 -146 24 -162 11 -7 -5 -32 -12 -56
-16 l-45 -7 26 21 c14 11 35 20 46 20 11 0 33 7 48 15 16 9 38 13 49 10 11 -3
34 -7 50 -9z m2159 -32 c96 -16 142 -36 150 -68 3 -11 4 -22 2 -23 -2 -2 -25
7 -52 19 -79 35 -236 52 -340 37 -39 -6 -79 -9 -90 -7 -17 4 -16 6 8 16 14 6
43 13 65 15 21 2 45 7 53 10 48 18 99 18 204 1z m-8569 -65 c91 -7 329 -46
360 -59 11 -5 29 -11 40 -13 11 -3 -1 -5 -27 -6 -26 0 -49 3 -52 7 -3 5 -18 9
-33 10 -28 1 -110 10 -305 33 -79 10 -116 10 -145 2 -21 -6 -65 -19 -98 -28
-88 -25 -149 -60 -200 -112 -25 -25 -47 -44 -50 -41 -6 6 52 87 79 110 45 38
137 77 196 84 33 4 63 10 65 15 5 6 58 6 170 -2z m6426 -9 c29 -6 56 -15 59
-21 4 -6 71 -12 160 -15 127 -5 160 -3 196 11 24 9 48 14 54 10 6 -4 16 -2 23
3 18 14 90 26 82 13 -3 -6 -16 -11 -29 -11 -12 0 -27 -5 -32 -10 -47 -47 -367
-68 -459 -30 -55 22 -135 33 -160 22 -14 -7 -37 -12 -49 -12 -13 0 -48 -12
-78 -27 -85 -44 -108 -51 -186 -59 -63 -6 -72 -5 -66 9 4 11 27 17 82 22 42 4
94 15 116 25 21 10 44 16 51 14 7 -3 15 2 18 10 4 9 13 16 21 16 8 0 16 4 18
10 2 5 20 12 42 14 21 3 41 8 44 11 8 8 33 6 93 -5z m2104 -36 c116 -18 155
-29 196 -57 32 -22 52 -67 30 -67 -6 0 -11 4 -11 10 0 17 -73 47 -130 55 -30
3 -71 11 -91 16 -75 19 -202 21 -279 5 -88 -19 -90 -19 -90 -6 0 6 12 10 28
10 15 0 36 7 46 15 11 8 34 15 50 15 17 1 42 7 56 15 26 15 34 14 195 -11z
m-3055 -24 c0 -5 -11 -10 -24 -10 -13 0 -37 -7 -52 -15 -16 -8 -48 -15 -72
-15 -23 0 -50 -4 -60 -9 -9 -5 -63 -17 -119 -27 -110 -19 -141 -17 -599 21
-94 8 -246 15 -337 15 -92 0 -167 4 -167 9 0 5 12 11 28 14 37 7 428 1 527 -8
44 -3 127 -11 185 -16 218 -21 294 -19 455 11 33 7 76 13 95 15 19 1 42 5 50
8 45 17 90 20 90 7z m1555 -20 c-3 -5 -21 -12 -40 -16 -19 -3 -39 -12 -46 -20
-6 -8 -20 -14 -31 -14 -10 0 -32 -7 -48 -15 -28 -14 -150 -25 -285 -24 -51 0
-112 13 -152 31 -30 14 -143 1 -188 -22 -20 -10 -50 -22 -65 -25 -16 -3 -34
-13 -41 -21 -6 -8 -29 -14 -51 -14 -22 0 -47 -4 -56 -9 -9 -5 -37 -5 -62 -1
l-45 7 29 12 c16 6 65 15 109 18 43 3 84 12 92 19 7 7 25 16 41 20 15 4 42 17
60 29 37 25 139 41 175 27 78 -30 112 -35 259 -35 126 0 163 3 190 16 18 10
39 17 45 17 7 0 26 7 41 15 32 17 78 20 69 5z m-6958 -30 c54 -11 115 -20 135
-20 20 0 39 -4 42 -9 3 -5 31 -11 62 -13 31 -3 59 -9 62 -15 4 -5 31 -13 61
-16 30 -4 57 -10 60 -15 3 -5 24 -13 46 -17 22 -5 32 -10 23 -12 -9 -2 -34 1
-55 7 -82 24 -149 39 -180 40 -17 0 -34 4 -37 8 -3 5 -25 9 -50 10 -24 1 -89
11 -143 22 -112 22 -189 26 -253 12 -72 -16 -160 -41 -180 -52 -10 -6 -26 -10
-35 -10 -20 0 -68 -34 -123 -87 -48 -47 -54 -51 -45 -26 7 17 26 42 68 87 28
29 123 74 206 96 39 10 73 21 76 24 13 13 167 5 260 -14z m8358 -40 c157 -16
169 -18 230 -30 33 -6 67 -18 76 -26 8 -8 20 -14 25 -14 13 0 35 -51 27 -63
-3 -5 -10 -3 -15 7 -26 46 -204 82 -455 93 -90 3 -163 10 -163 14 0 11 68 32
84 26 7 -3 19 -1 27 4 8 5 28 7 44 4 17 -3 71 -10 120 -15z m-1370 -20 c-3 -5
-22 -12 -41 -16 -20 -4 -38 -12 -41 -20 -2 -7 -22 -15 -44 -19 -21 -4 -39 -11
-39 -15 0 -12 -50 -21 -143 -25 -45 -2 -111 -5 -147 -8 -44 -3 -88 2 -134 14
-47 13 -88 17 -125 14 -59 -6 -178 -42 -187 -56 -3 -5 -16 -9 -29 -9 -13 0
-36 -5 -52 -12 -15 -6 -50 -12 -76 -14 -26 -1 -55 -8 -62 -14 -18 -15 -68 -4
-62 13 2 7 15 12 28 13 13 0 42 5 64 11 72 18 158 33 166 27 5 -3 22 4 38 15
16 12 41 21 55 21 15 0 29 6 32 14 9 24 131 43 163 27 35 -19 103 -25 266 -26
94 0 172 2 175 5 11 11 72 40 85 40 7 0 32 9 56 19 42 19 65 19 54 1z m-1670
-24 c-21 -14 -75 -27 -135 -32 -19 -2 -51 -7 -70 -12 -153 -42 -298 -51 -458
-28 -62 9 -132 16 -156 16 -23 0 -46 3 -50 7 -4 4 -37 9 -74 10 -397 20 -400
20 -302 23 52 1 97 2 100 2 3 0 73 -3 155 -7 83 -4 178 -8 211 -10 34 -1 66
-5 72 -9 20 -12 373 -16 394 -5 11 6 45 15 77 20 31 5 85 15 121 23 36 7 81
14 100 15 32 1 33 0 15 -13z m-5370 -6 c4 -6 11 -8 16 -4 13 7 99 -15 99 -26
0 -4 22 -10 48 -14 27 -3 52 -10 56 -14 4 -4 22 -7 39 -8 51 -1 171 -24 181
-35 6 -5 23 -9 38 -9 30 0 98 -24 98 -35 0 -7 -67 3 -95 15 -19 7 -88 21 -195
40 -25 4 -62 15 -82 24 -21 9 -48 16 -61 16 -13 0 -28 5 -34 11 -15 15 -201
21 -227 7 -11 -6 -45 -14 -75 -18 -112 -16 -200 -45 -291 -95 -13 -8 -41 -33
-62 -56 -46 -51 -61 -45 -22 8 51 68 62 76 174 126 36 16 48 19 165 42 39 8
84 19 100 24 41 13 122 13 130 1z m8215 -66 c41 -2 145 -6 230 -8 104 -3 176
-10 220 -22 64 -17 114 -51 123 -83 3 -13 -6 -11 -52 10 -77 36 -227 58 -451
65 -214 6 -265 6 -302 -2 -29 -6 -40 13 -13 21 8 3 23 8 33 11 9 4 35 8 56 10
22 2 42 7 45 9 3 3 12 3 20 -1 9 -3 50 -7 91 -10z m-2832 -26 c-3 -7 -23 -16
-46 -21 -23 -4 -42 -12 -42 -18 0 -5 -17 -9 -39 -9 -21 0 -51 -4 -67 -10 -38
-13 -177 -37 -284 -50 -73 -9 -117 -7 -305 15 -121 14 -285 28 -365 30 -228 6
-209 5 -182 15 33 14 409 2 622 -20 190 -19 354 -13 417 16 18 8 45 13 60 12
15 -1 38 4 50 10 12 7 35 12 51 12 16 0 45 7 63 15 42 18 72 19 67 3z m-5210
-33 c39 -17 42 -30 5 -20 -39 9 -190 7 -227 -4 -17 -5 -78 -14 -136 -21 -127
-15 -196 -33 -275 -72 -61 -30 -142 -104 -162 -148 -10 -22 -12 -22 -12 -5 -2
49 96 160 169 191 8 3 29 12 45 19 42 19 165 45 211 45 22 1 80 9 129 20 98
21 194 19 253 -5z m6802 17 c0 -8 -33 -23 -102 -46 -60 -20 -400 -31 -432 -14
-49 26 -222 8 -266 -28 -18 -14 -96 -34 -160 -41 -25 -2 -54 -8 -65 -13 -11
-5 -45 -11 -74 -14 -55 -6 -55 -6 -35 14 13 13 35 21 60 22 21 0 44 5 51 10 7
6 40 12 73 15 33 3 63 10 66 14 3 5 20 9 37 9 18 0 46 9 62 20 17 11 39 20 50
20 11 0 30 7 42 15 25 17 144 15 166 -3 14 -12 41 -13 271 -13 114 0 153 4
165 15 23 21 91 34 91 18z m-1580 -81 c0 -5 -15 -12 -32 -16 -18 -4 -42 -13
-54 -20 -25 -16 -83 -34 -149 -44 -107 -18 -171 -32 -190 -41 -59 -29 -324
-26 -502 4 -135 24 -302 36 -331 25 -14 -5 -39 -7 -56 -3 l-31 7 25 9 c32 12
351 11 382 -1 63 -26 391 -42 456 -22 18 5 39 8 47 5 7 -3 23 0 35 6 12 7 36
13 54 15 29 3 50 7 176 38 25 6 52 10 60 9 8 -1 29 7 45 17 32 21 65 27 65 12z
m3157 -2 c91 -15 203 -48 203 -59 0 -6 6 -10 13 -10 16 0 41 -27 50 -52 9 -26
-4 -22 -40 10 -19 18 -52 34 -84 41 -30 6 -74 17 -99 22 -57 14 -553 14 -680
0 -52 -6 -96 -9 -97 -7 -2 2 15 14 39 26 40 21 57 23 221 25 97 1 180 4 183 7
10 11 224 9 291 -3z m-1573 -24 c-10 -8 -24 -15 -30 -15 -6 0 -24 -10 -39 -22
-26 -20 -40 -22 -167 -24 -76 0 -141 -4 -145 -7 -10 -10 -122 -8 -142 2 -45
24 -218 11 -276 -22 -32 -17 -174 -51 -262 -62 -29 -4 -55 -11 -59 -16 -3 -5
-21 -9 -39 -9 -26 0 -33 3 -29 15 4 8 18 15 33 15 15 0 35 6 46 14 17 11 67
20 175 30 14 1 38 7 53 14 16 7 37 12 47 12 11 0 35 11 54 24 41 28 115 38
201 30 33 -4 157 -7 276 -7 205 0 219 1 250 21 19 12 43 22 53 22 20 0 20 0 0
-15z m-6663 -32 c6 -6 17 -9 24 -6 8 2 26 -3 42 -12 l28 -16 -44 7 c-156 23
-639 -2 -716 -36 -22 -10 -99 -38 -130 -47 -11 -4 -24 -12 -28 -20 -4 -7 -14
-13 -22 -13 -16 0 -65 -46 -107 -100 -18 -23 -27 -29 -28 -19 0 9 7 22 15 29
8 7 15 18 15 24 1 15 46 66 60 66 5 0 10 4 10 9 0 12 84 61 103 61 9 0 17 3
19 8 6 14 104 41 193 53 209 27 544 34 566 12z m2664 -23 c145 -26 185 -35
185 -42 0 -4 10 -8 23 -8 44 0 214 -40 323 -75 23 -8 50 -11 62 -9 11 3 23 1
26 -5 4 -6 24 -8 50 -5 25 4 52 2 62 -5 15 -8 4 -10 -51 -10 -96 1 -182 16
-305 55 -25 8 -57 14 -72 14 -15 0 -30 5 -33 10 -3 6 -21 10 -39 10 -18 0 -52
6 -77 14 -24 8 -77 20 -116 26 -40 7 -75 16 -79 21 -3 5 -14 9 -24 9 -10 0
-22 5 -25 10 -4 7 2 9 17 5 12 -3 46 -10 73 -15z m2480 -10 c-27 -11 -57 -20
-66 -20 -8 0 -42 -13 -74 -30 -32 -16 -67 -30 -77 -30 -10 0 -26 -4 -36 -9
-23 -12 -109 -32 -152 -36 -19 -2 -69 -11 -110 -20 -41 -9 -104 -21 -140 -26
-69 -11 -265 -4 -340 12 -25 5 -103 16 -173 24 -179 19 -181 28 -7 26 36 0 92
-5 125 -10 186 -32 456 -34 500 -5 13 9 34 14 47 13 13 -2 43 2 68 8 25 6 72
17 105 23 33 6 80 18 105 26 25 8 55 14 68 14 12 0 22 4 22 8 0 9 61 38 95 45
11 3 36 5 55 5 34 1 34 1 -15 -18z m-2828 -20 c15 -16 33 -30 38 -30 6 0 30
-20 53 -45 23 -25 48 -45 56 -45 8 0 16 -6 19 -14 3 -8 32 -23 64 -33 32 -9
61 -22 65 -27 4 -6 10 -8 13 -4 3 3 23 2 43 -4 20 -5 60 -13 87 -18 28 -5 77
-14 110 -20 33 -6 64 -15 69 -21 6 -5 25 -9 42 -9 18 0 45 -5 61 -11 15 -7 37
-13 48 -14 81 -8 144 -19 165 -30 14 -7 47 -13 74 -13 56 -1 64 -6 47 -26 -10
-11 -8 -17 6 -25 15 -9 11 -10 -21 -11 -33 0 -38 3 -33 20 3 11 4 20 2 20 -2
0 -10 3 -19 6 -12 5 -16 0 -16 -20 0 -23 -4 -26 -32 -26 -38 1 -77 24 -55 33
7 3 26 2 43 -1 25 -5 27 -3 16 10 -7 9 -34 18 -60 21 -26 3 -76 13 -112 22
-89 22 -249 55 -258 53 -4 -1 -18 2 -32 5 -14 4 -39 8 -56 11 -17 2 -40 8 -50
14 -11 5 -39 13 -64 17 -25 4 -49 11 -55 15 -5 4 -21 11 -34 15 -28 8 -127 70
-133 82 -1 4 -29 29 -62 56 -55 44 -62 47 -117 47 -54 0 -69 7 -53 23 3 3 30
6 59 6 45 0 57 -5 82 -29z m4353 -8 c-13 -9 -32 -24 -40 -32 -8 -8 -38 -23
-65 -33 -43 -15 -84 -17 -270 -16 -327 1 -378 -1 -401 -16 -12 -7 -38 -17 -58
-20 -20 -4 -39 -11 -42 -16 -2 -5 -27 -11 -55 -15 -27 -4 -52 -11 -55 -15 -3
-5 -24 -9 -47 -9 -23 0 -60 -6 -82 -14 -22 -7 -59 -16 -83 -19 -38 -5 -41 -3
-30 10 15 18 52 33 93 39 17 2 62 11 100 19 39 9 91 20 118 24 26 4 53 13 59
19 7 7 25 12 42 12 16 0 37 7 46 15 24 22 150 38 197 26 51 -14 409 -14 435 0
11 6 34 11 51 11 18 1 34 4 37 8 10 12 55 40 65 39 5 0 -1 -8 -15 -17z m1441
8 c107 -3 229 -20 293 -41 62 -21 126 -74 126 -104 0 -21 -4 -19 -37 13 -49
49 -202 87 -378 93 -174 7 -535 -16 -575 -36 -36 -18 -150 -30 -150 -15 0 20
67 40 157 46 48 3 92 8 96 11 23 14 370 45 398 36 3 -1 34 -2 70 -3z m-5639
-17 c18 -10 35 -21 38 -25 3 -3 23 -9 45 -13 22 -4 46 -12 53 -18 7 -5 36 -12
64 -14 29 -2 55 -7 58 -12 5 -8 123 -31 158 -31 11 0 33 -5 49 -11 15 -7 45
-13 67 -15 21 -1 43 -7 49 -13 6 -6 24 -11 39 -11 16 0 45 -7 65 -15 19 -8 55
-15 79 -15 23 0 45 -4 48 -9 3 -5 24 -7 46 -4 22 3 45 1 52 -5 7 -5 62 -10
121 -9 59 0 110 -3 114 -7 9 -9 -242 -6 -317 4 -58 8 -192 33 -305 59 -22 4
-53 14 -68 20 -16 6 -46 11 -68 11 -21 0 -39 5 -39 10 0 6 -15 10 -33 10 -18
0 -56 6 -83 14 -27 8 -68 17 -91 21 -24 4 -45 11 -49 16 -3 5 -16 9 -29 9 -13
0 -32 9 -42 19 -10 11 -30 22 -45 26 -16 4 -28 11 -28 16 0 13 15 11 52 -8z
m-2547 -54 c44 -6 102 -14 130 -17 27 -4 -84 -6 -247 -5 -234 2 -308 -1 -352
-12 -32 -8 -65 -15 -75 -15 -23 0 -115 -27 -156 -45 -16 -8 -40 -16 -52 -20
-13 -3 -23 -11 -23 -16 0 -5 -6 -9 -13 -9 -18 0 -67 -45 -112 -105 -26 -34
-35 -42 -30 -25 13 42 67 118 92 129 13 6 23 15 23 21 0 5 5 10 12 10 6 0 19
7 28 15 10 9 44 25 76 36 32 11 68 24 79 28 84 37 445 54 620 30z m2283 -31
c8 -8 15 -8 25 0 16 14 55 5 82 -18 11 -10 30 -21 43 -25 12 -3 29 -20 37 -36
9 -16 24 -29 33 -29 10 0 31 -13 47 -30 16 -16 36 -30 44 -30 9 0 30 -8 46
-17 17 -9 50 -20 75 -24 144 -26 175 -33 180 -39 3 -4 28 -10 55 -14 68 -8 94
-13 135 -25 19 -6 53 -11 75 -11 36 -1 75 -18 75 -33 0 -10 -103 4 -137 19
-17 8 -44 14 -60 14 -29 0 -112 17 -248 52 -44 11 -89 22 -100 23 -41 7 -108
36 -137 60 -16 14 -33 25 -37 25 -5 0 -26 18 -47 40 -22 22 -45 40 -52 40 -7
0 -26 9 -41 21 -23 17 -40 20 -85 17 -58 -3 -64 0 -44 20 15 15 21 15 36 0z
m4432 -38 c-6 -11 -17 -20 -26 -20 -8 0 -25 -7 -37 -15 -13 -8 -48 -20 -78
-26 -55 -10 -492 -14 -509 -4 -5 3 -28 -1 -52 -10 -24 -8 -52 -15 -63 -15 -11
0 -37 -9 -58 -20 -20 -11 -48 -20 -63 -20 -23 0 -25 -3 -22 -32 3 -31 5 -33
47 -36 30 -2 49 2 62 14 11 10 36 18 57 18 20 1 42 4 47 8 18 11 85 21 85 12
0 -11 421 -12 438 -1 6 5 30 9 53 9 22 0 45 6 52 13 19 18 54 35 74 35 15 0
14 -4 -7 -20 -14 -11 -30 -20 -36 -20 -6 0 -19 -9 -29 -20 -11 -13 -31 -20
-52 -20 -19 0 -44 -5 -55 -11 -18 -10 -373 -15 -453 -6 -34 3 -138 -14 -170
-28 -16 -7 -43 -17 -59 -21 -24 -7 -30 -14 -29 -37 2 -49 2 -50 26 -42 12 4
31 7 42 6 10 0 24 4 30 8 18 15 174 42 193 34 20 -9 324 -9 397 0 85 11 169
50 246 113 30 24 59 44 65 44 6 0 18 7 25 16 41 50 258 98 272 61 8 -21 -5
-33 -33 -30 -75 7 -235 -35 -255 -67 -3 -5 -14 -10 -23 -10 -19 -1 -62 -33
-62 -47 0 -4 -14 -14 -32 -22 -17 -8 -38 -21 -47 -30 -20 -19 -108 -52 -176
-64 -68 -13 -362 -15 -403 -3 -24 7 -39 6 -53 -2 -10 -7 -39 -12 -63 -12 -25
0 -47 -4 -50 -9 -3 -5 -22 -12 -41 -15 -33 -6 -35 -9 -35 -45 l0 -38 43 1 c23
1 47 5 53 8 27 17 196 26 364 19 90 -3 156 1 166 12 4 4 25 7 47 7 22 0 48 6
56 14 9 8 34 17 56 21 l40 6 -50 -26 c-27 -15 -54 -30 -60 -34 -9 -7 -69 -20
-170 -37 -39 -6 -94 -6 -226 1 -67 3 -193 -7 -264 -22 -36 -8 -40 -12 -38 -38
4 -51 6 -52 75 -42 34 5 149 11 253 13 217 3 291 11 322 30 12 8 31 14 42 14
11 0 40 14 64 30 25 17 49 30 53 30 4 0 26 12 47 27 48 33 112 59 207 83 65
16 79 18 138 19 39 1 52 5 52 16 0 8 7 15 15 15 8 0 15 -4 15 -9 0 -5 -7 -11
-15 -15 -8 -3 -15 -14 -15 -25 0 -16 -7 -19 -32 -19 -18 0 -62 -5 -98 -11 -36
-6 -81 -14 -100 -17 -19 -3 -51 -13 -70 -24 -19 -10 -46 -21 -60 -25 -14 -4
-36 -16 -49 -26 -13 -11 -33 -19 -45 -19 -11 0 -36 -14 -55 -30 -18 -17 -43
-30 -55 -30 -12 0 -31 -7 -42 -15 -10 -8 -36 -15 -56 -15 -20 0 -49 -5 -63
-10 -15 -6 -129 -12 -254 -14 -124 -3 -234 -7 -243 -11 -12 -5 -20 -2 -24 9
-4 11 -13 14 -30 10 -15 -4 -24 -2 -24 5 0 6 8 11 18 11 16 1 16 2 0 13 -10 9
-18 32 -21 68 -2 29 -10 66 -17 81 -8 17 -10 37 -5 55 10 35 8 47 -17 103 -43
97 -39 92 -80 87 -26 -4 -35 -2 -32 8 3 7 45 17 107 24 68 9 110 19 128 32 15
10 38 19 52 19 14 0 38 5 54 11 38 15 152 22 166 11 7 -6 103 -8 222 -7 185 3
215 5 250 23 34 16 60 28 73 31 1 1 -2 -8 -8 -19z m1635 10 c182 -35 233 -58
264 -118 19 -36 5 -38 -32 -5 -81 71 -264 103 -572 99 -110 -1 -222 -8 -250
-14 -74 -16 -154 -32 -205 -40 -25 -4 -58 -15 -75 -24 -33 -18 -76 -33 -118
-43 -21 -4 -28 -2 -25 7 8 24 63 47 138 59 41 6 80 15 85 19 6 4 24 10 40 13
40 7 115 28 140 38 34 14 61 15 315 17 135 1 268 -2 295 -8z m-3365 -35 c-7
-8 -24 -15 -37 -15 -14 0 -39 -6 -56 -14 -18 -8 -52 -17 -77 -21 -25 -3 -65
-10 -90 -15 -25 -5 -70 -12 -100 -17 -30 -5 -64 -14 -75 -20 -34 -18 -237 -23
-323 -7 -42 8 -117 19 -167 25 -123 15 -137 18 -130 30 9 14 165 4 248 -16
104 -24 377 -22 425 4 11 6 22 8 25 4 4 -3 19 0 34 6 16 6 46 12 68 13 21 1
51 7 65 15 14 7 41 13 60 13 19 1 46 7 60 15 14 8 38 14 54 15 24 0 27 -2 16
-15z m-4855 -31 c44 -9 82 -18 85 -21 3 -3 -44 -2 -105 2 -214 13 -610 5 -640
-13 -5 -3 -27 -9 -50 -13 -78 -14 -253 -91 -262 -116 -3 -7 -9 -13 -15 -13
-13 0 -68 -62 -68 -78 0 -7 -7 -15 -15 -18 -8 -4 -15 -14 -16 -23 0 -9 -3 -11
-5 -4 -3 6 6 34 20 61 53 105 203 197 371 227 184 33 554 38 700 9z m5075 -23
c0 -5 -17 -11 -37 -14 -65 -10 -125 -24 -208 -50 -44 -14 -91 -28 -105 -31
-14 -2 -38 -9 -53 -15 -16 -6 -46 -11 -67 -11 -22 0 -49 -4 -62 -9 -13 -6 -44
-13 -70 -16 -27 -3 -49 -12 -52 -21 -5 -12 5 -14 62 -9 37 3 87 10 112 15 168
33 291 53 296 47 3 -3 -27 -16 -68 -28 -68 -21 -94 -25 -207 -34 -24 -1 -47
-9 -52 -16 -5 -9 -9 -10 -9 -2 0 8 -12 8 -49 -2 -33 -8 -54 -9 -66 -2 -13 7
-24 6 -36 -2 -28 -17 -116 -14 -145 5 -19 13 -30 14 -47 7 -12 -6 -31 -7 -42
-2 -11 4 -47 8 -80 9 -33 1 -82 6 -110 11 -27 6 -103 13 -167 17 -71 5 -122
12 -130 20 -18 18 149 16 252 -4 45 -8 121 -17 168 -18 107 -4 310 11 337 25
11 5 36 11 55 13 19 1 53 7 75 14 22 6 73 16 113 22 40 7 86 18 102 26 16 8
42 16 58 19 17 2 41 9 54 16 44 24 178 39 178 20z m-2836 -16 c8 -8 22 -15 31
-15 22 0 65 -30 65 -45 0 -7 10 -15 23 -19 12 -3 37 -19 55 -35 18 -17 50 -36
72 -42 22 -7 40 -15 40 -19 0 -4 21 -11 48 -15 26 -4 52 -10 57 -15 6 -4 32
-10 58 -14 27 -3 54 -9 60 -13 7 -4 23 -8 37 -9 73 -4 157 -18 175 -29 11 -7
42 -13 69 -13 59 -2 71 -11 60 -49 -7 -26 -8 -26 -11 -6 -3 17 -13 24 -41 28
-20 3 -53 10 -72 15 -50 13 -137 31 -195 41 -147 24 -275 56 -275 70 0 4 -14
11 -32 14 -18 4 -43 20 -57 36 -14 16 -32 29 -39 29 -7 0 -27 13 -43 30 -35
35 -80 50 -169 59 l-65 7 35 11 c50 16 96 15 114 -2z m5971 -12 c11 -4 30 -6
42 -4 11 1 24 -3 28 -8 3 -6 21 -11 39 -11 36 0 144 -50 168 -78 9 -9 19 -28
23 -42 7 -23 6 -23 -30 9 -54 47 -109 67 -240 88 -161 25 -646 21 -730 -6 -47
-15 -121 -23 -110 -13 6 5 44 22 85 37 71 26 86 27 294 31 121 2 221 6 224 8
6 7 183 -3 207 -11z m-8115 -70 c8 -3 31 -7 51 -9 20 -2 47 -8 60 -13 25 -10
-78 -7 -276 9 -111 8 -357 6 -480 -5 -113 -10 -288 -58 -367 -100 -59 -32
-108 -72 -157 -131 -11 -12 -16 -14 -19 -5 -2 7 3 20 12 30 9 10 16 21 16 26
0 30 143 125 230 153 142 46 203 55 395 61 183 6 504 -4 535 -16z m8160 -52
c25 -6 70 -16 100 -22 30 -7 57 -15 60 -19 3 -4 16 -11 29 -15 29 -9 81 -60
81 -80 0 -20 -7 -19 -33 6 -25 24 -96 58 -147 70 -19 4 -55 13 -79 19 -104 26
-610 17 -816 -15 -136 -20 -149 -19 -94 9 49 25 88 32 244 42 355 23 567 24
655 5z m-8570 -53 c20 -1 41 1 47 5 15 10 313 -15 313 -25 0 -5 4 -7 9 -4 5 4
20 2 33 -3 18 -8 12 -10 -34 -10 -31 -1 -59 2 -61 7 -6 9 -387 8 -507 -2 -237
-18 -435 -87 -530 -185 -25 -25 -56 -59 -68 -76 l-22 -30 12 30 c45 111 132
181 286 231 40 13 82 24 93 24 11 0 30 5 41 11 20 11 309 39 338 33 8 -2 31
-4 50 -6z m8550 -62 c158 -18 289 -80 313 -148 4 -10 4 -18 1 -18 -5 0 -94 69
-104 81 -3 3 -32 11 -65 17 -33 6 -82 16 -110 23 -67 16 -586 16 -675 0 -36
-6 -99 -14 -140 -17 -62 -4 -72 -3 -55 8 11 6 40 15 65 19 25 4 67 12 93 18
26 6 87 13 135 16 47 3 87 7 88 8 6 5 397 0 454 -7z m-8170 -64 c135 -12 120
-10 120 -23 0 -10 -17 -10 -200 7 -63 5 -448 4 -490 -1 -19 -3 -73 -10 -120
-16 -46 -5 -89 -14 -95 -18 -5 -5 -31 -11 -56 -15 -135 -20 -297 -116 -360
-215 -16 -25 -29 -38 -29 -29 0 30 19 62 63 111 106 114 230 161 537 205 79
12 472 8 630 -6z m6910 -32 c12 -7 12 -12 3 -21 -10 -10 -18 -10 -40 0 -23 10
-29 10 -38 -2 -6 -8 -35 -18 -65 -22 -128 -17 -319 -79 -328 -106 -2 -5 -15
-9 -28 -9 -13 0 -42 -11 -64 -25 -21 -13 -58 -28 -82 -31 -24 -4 -46 -11 -49
-16 -3 -5 -119 -13 -258 -18 -155 -5 -257 -13 -265 -19 -10 -8 -17 -7 -26 4
-10 13 -9 15 11 15 l22 0 -21 23 c-12 13 -22 33 -22 45 0 12 -5 22 -11 22 -5
0 -8 4 -4 10 6 10 36 2 47 -14 4 -6 8 -21 8 -33 0 -28 8 -30 104 -21 44 5 140
11 211 13 211 6 275 16 341 51 25 13 50 24 55 24 6 0 23 9 38 19 15 11 40 23
57 27 16 4 43 16 59 26 17 10 41 18 55 18 14 0 37 6 51 14 15 7 59 16 99 20
40 3 76 8 78 11 9 8 46 5 62 -5z m1268 -24 c41 -3 81 -10 90 -15 9 -5 20 -9
25 -9 56 -2 155 -51 185 -92 25 -34 9 -42 -24 -12 -30 26 -82 49 -149 66 -59
14 -226 34 -275 33 -14 0 -61 1 -105 2 -74 3 -219 -2 -390 -14 -172 -12 -198
-16 -328 -52 -31 -9 -60 -13 -64 -10 -3 4 3 7 15 7 11 0 23 4 26 9 3 5 30 14
58 21 29 7 73 19 97 27 25 7 54 13 65 11 12 -1 26 1 32 4 10 7 56 11 234 24
47 3 86 7 88 8 5 6 346 -1 420 -8z m-8528 -66 c0 -6 -34 -10 -81 -10 -44 0
-126 -7 -182 -15 -255 -37 -288 -44 -365 -80 -29 -14 -58 -25 -65 -25 -6 0
-23 -9 -37 -20 -14 -11 -29 -20 -33 -20 -14 0 -107 -103 -107 -117 0 -8 -4
-12 -9 -8 -24 14 48 107 117 153 90 59 138 77 297 114 125 29 465 50 465 28z
m8407 -39 c79 -2 145 -6 148 -11 3 -4 36 -11 75 -15 38 -4 70 -11 70 -16 0 -5
10 -9 22 -9 37 0 102 -38 127 -75 24 -35 22 -63 -2 -33 -18 23 -94 68 -115 68
-10 0 -22 4 -28 9 -8 9 -53 18 -209 41 -84 12 -389 12 -515 0 -58 -6 -148 -14
-201 -19 -53 -5 -104 -13 -115 -18 -10 -6 -48 -13 -84 -17 -35 -3 -69 -11 -74
-16 -6 -6 -23 -10 -39 -10 -25 0 -28 2 -17 15 7 8 27 15 44 15 18 0 41 7 52
15 10 8 36 15 56 15 20 0 49 5 65 11 55 21 396 55 528 53 39 -1 134 -2 212 -3z
m-1247 -31 c0 -16 -37 -27 -125 -38 -97 -12 -154 -26 -208 -52 -22 -11 -45
-20 -51 -20 -5 0 -28 -8 -50 -19 -74 -33 -162 -61 -198 -61 -18 0 -38 -4 -44
-9 -5 -6 -86 -12 -181 -15 -95 -2 -177 -7 -183 -11 -13 -8 -13 -28 2 -60 l12
-26 130 6 c72 4 145 11 162 16 17 5 44 9 60 8 16 -1 56 6 89 16 33 9 70 19 83
22 12 3 25 9 28 14 3 5 13 9 23 9 10 0 39 9 65 21 25 11 51 17 57 14 5 -4 22
1 36 10 14 10 46 19 72 21 25 2 57 7 71 11 14 3 30 7 35 7 43 6 96 19 100 26
8 12 75 -11 75 -27 0 -18 -15 -16 -46 4 -25 16 -26 15 -47 -10 -20 -24 -33
-28 -122 -38 -55 -6 -115 -18 -134 -25 -18 -8 -42 -14 -53 -14 -10 0 -37 -9
-60 -20 -23 -11 -57 -23 -77 -26 -20 -4 -41 -11 -48 -16 -16 -13 -244 -60
-264 -55 -9 3 -49 0 -90 -4 -41 -5 -84 -10 -97 -12 -25 -2 -27 -6 -19 -46 4
-16 14 -31 25 -33 41 -11 355 31 374 50 7 7 30 12 52 12 23 0 50 7 60 15 11 8
35 15 54 15 18 0 42 5 53 11 20 10 106 28 164 33 17 2 56 9 88 16 61 12 73 10
64 -12 -4 -12 -147 -45 -169 -40 -4 1 -19 -3 -34 -8 -14 -6 -70 -17 -123 -26
-53 -8 -100 -19 -105 -25 -6 -5 -24 -9 -40 -9 -17 0 -44 -7 -60 -15 -15 -8
-41 -15 -58 -15 -16 0 -41 -6 -56 -14 -16 -8 -63 -14 -117 -15 -49 -1 -94 -6
-99 -11 -6 -6 -18 -10 -28 -10 -14 0 -16 -6 -11 -32 3 -18 9 -37 13 -41 9 -10
158 7 250 29 36 8 76 16 90 18 14 1 32 5 40 9 24 10 175 37 295 52 59 7 136
25 155 35 26 14 30 13 30 -8 0 -22 -40 -39 -110 -48 -30 -4 -59 -10 -65 -14
-5 -4 -39 -10 -75 -13 -36 -3 -85 -10 -110 -16 -254 -57 -300 -66 -390 -76
-25 -3 -57 -10 -71 -16 -23 -9 -25 -14 -19 -42 l6 -32 79 3 c43 2 86 7 95 12
10 5 33 10 51 11 19 1 50 6 69 12 19 6 49 12 65 14 209 23 358 48 413 69 47
18 65 12 40 -12 -22 -22 -151 -53 -328 -79 -52 -8 -122 -19 -155 -25 -33 -6
-77 -13 -98 -16 -21 -3 -49 -9 -63 -14 -14 -6 -43 -10 -65 -10 -51 0 -79 -15
-80 -43 0 -14 -2 -16 -6 -7 -6 21 -18 49 -37 93 -9 21 -16 46 -16 56 0 10 -7
32 -15 47 -8 16 -15 36 -15 45 0 27 -41 149 -51 149 -5 0 -8 10 -7 23 3 45
-52 182 -81 201 -11 7 -11 10 0 17 22 14 28 11 43 -24 13 -33 15 -34 67 -31
30 2 119 6 199 9 140 5 275 26 294 46 6 5 22 9 37 9 15 0 32 7 39 15 7 8 19
15 26 15 8 0 22 4 32 9 24 12 110 46 157 62 74 24 235 37 235 19z m-6740 -44
c19 -3 70 -8 113 -12 55 -5 77 -10 77 -20 0 -17 -22 -18 -38 -2 -16 16 -682
24 -807 9 -213 -25 -255 -32 -340 -60 -139 -45 -209 -85 -292 -169 -42 -43
-45 -44 -27 -14 81 141 279 229 614 272 62 8 646 5 700 -4z m8104 -47 c22 0
45 -4 52 -10 7 -6 17 -8 21 -6 8 5 83 -11 150 -31 49 -16 143 -84 143 -105 0
-15 -8 -12 -44 17 -23 20 -49 36 -56 36 -6 0 -26 7 -43 14 -18 8 -54 19 -82
25 -27 5 -72 15 -100 21 -76 16 -592 7 -735 -14 -63 -9 -134 -21 -158 -26 -54
-13 -95 -13 -87 0 3 6 17 10 31 10 13 0 50 8 81 19 134 43 311 58 608 52 99
-1 198 -3 219 -2z m-8150 -54 c123 -6 136 -9 136 -27 0 -6 -15 -8 -42 -3 -24
3 -144 9 -268 12 -227 5 -369 -4 -545 -33 -49 -9 -110 -18 -135 -21 -25 -3
-49 -9 -55 -13 -5 -4 -26 -11 -45 -15 -19 -4 -41 -11 -50 -16 -8 -4 -42 -20
-75 -35 -101 -46 -195 -119 -195 -153 0 -6 -4 -11 -9 -11 -17 0 -42 -63 -48
-117 -8 -72 -21 -67 -15 5 8 105 69 201 165 258 80 48 131 74 148 74 8 0 19 4
25 9 10 11 69 27 169 46 39 8 90 18 115 24 25 6 72 11 105 12 33 1 74 5 90 9
33 8 340 5 529 -5z m8140 -70 c172 -14 306 -58 366 -120 40 -42 33 -58 -9 -22
-43 35 -153 75 -261 94 -116 21 -500 26 -710 10 -82 -6 -225 -29 -247 -40 -13
-6 -25 -8 -28 -5 -3 3 -34 -1 -68 -8 -73 -16 -135 -18 -102 -4 11 5 32 9 48 9
15 1 27 5 27 10 0 8 23 13 205 41 39 6 92 16 119 22 98 21 475 29 660 13z
m-2956 -112 c12 -17 22 -37 22 -44 0 -7 13 -33 29 -58 16 -25 32 -61 36 -79 4
-18 13 -45 21 -60 8 -15 14 -37 14 -49 0 -13 5 -23 10 -23 6 0 10 -8 10 -18 0
-10 6 -26 14 -37 11 -17 27 -117 28 -175 1 -8 5 -20 10 -27 10 -12 26 -135 32
-244 2 -37 7 -88 10 -115 13 -98 14 -144 5 -149 -5 -4 -9 5 -9 19 0 14 -6 26
-12 26 -9 0 -9 3 -3 8 13 8 17 52 6 52 -9 0 -14 48 -14 138 0 28 -4 52 -9 52
-5 0 -4 9 2 19 6 12 6 22 1 25 -5 3 -7 15 -4 26 3 11 0 20 -6 20 -6 0 -10 10
-10 23 2 40 -12 135 -23 153 -4 6 -10 37 -13 69 -3 33 -10 62 -14 65 -5 3 -12
22 -16 43 -4 20 -11 40 -16 43 -5 3 -7 9 -4 14 3 5 1 11 -5 15 -5 3 -10 13
-10 22 0 15 -24 75 -41 103 -5 8 -14 26 -19 40 -18 43 -32 74 -41 90 -34 58
-40 74 -34 88 6 14 10 11 19 -14 6 -16 21 -44 34 -61z m2837 3 c279 -14 385
-39 480 -110 43 -33 55 -46 55 -60 0 -6 -12 2 -27 16 -33 30 -71 50 -133 67
-25 7 -54 18 -65 24 -51 27 -571 43 -770 24 -22 -2 -88 -7 -147 -12 -60 -4
-108 -11 -108 -15 0 -4 -33 -10 -72 -13 -40 -4 -74 -11 -76 -17 -2 -5 -20 -10
-40 -9 -35 0 -36 1 -12 10 14 6 48 15 75 20 28 5 59 13 70 18 36 16 248 42
470 57 44 3 81 6 82 7 2 3 66 1 218 -7z m199 -187 c68 -23 117 -54 113 -72 -1
-7 8 -12 21 -12 28 0 62 -49 62 -90 0 -50 20 -107 39 -112 22 -6 31 -79 31
-249 0 -118 -11 -167 -44 -199 -14 -13 -20 -30 -18 -47 2 -15 -8 -51 -22 -80
-21 -44 -24 -60 -17 -85 5 -17 7 -33 5 -36 -2 -2 -6 -57 -9 -123 -3 -65 -10
-141 -17 -167 -10 -42 -10 -55 5 -97 20 -56 22 -101 5 -118 -7 -7 -20 -36 -30
-65 -12 -38 -17 -45 -18 -27 -2 24 -2 24 -12 -5 -13 -39 -19 -356 -7 -372 6
-6 6 -24 2 -40 l-7 -28 -8 30 c-5 20 -5 14 -2 -18 3 -29 1 -54 -6 -62 -7 -8
-8 -20 -4 -27 11 -17 13 -168 3 -168 -13 0 -30 -39 -35 -79 -13 -102 -14 -123
-5 -140 12 -22 3 -69 -10 -49 -6 9 -9 7 -9 -9 0 -27 34 -32 44 -8 3 8 10 15
16 15 5 0 10 -7 10 -15 0 -8 8 -16 18 -16 16 -1 16 -2 0 -6 -10 -2 -20 -18
-24 -38 -4 -26 -1 -38 15 -54 12 -12 21 -25 21 -30 0 -14 -28 -21 -34 -8 -2 7
-5 4 -5 -5 -1 -10 -5 -18 -11 -18 -5 0 -10 -22 -10 -50 0 -30 -4 -50 -11 -50
-6 0 -9 7 -5 15 3 8 -1 31 -9 52 -12 35 -14 36 -14 11 -1 -15 -6 -30 -12 -34
-6 -3 -9 -15 -6 -25 3 -11 -1 -26 -9 -33 -10 -11 -11 -21 -5 -39 11 -29 -11
-104 -30 -99 -24 6 -59 -40 -59 -77 0 -20 -7 -45 -15 -55 -8 -11 -15 -31 -15
-44 0 -24 -28 -84 -42 -90 -5 -2 -8 -12 -8 -22 0 -29 -11 -50 -26 -50 -7 0
-16 -11 -20 -24 -3 -14 -14 -32 -24 -41 -15 -14 -16 -21 -7 -46 9 -22 9 -34
-1 -49 -6 -11 -12 -25 -12 -31 0 -6 -12 -25 -26 -42 -17 -20 -24 -39 -21 -54
3 -15 -6 -39 -23 -65 -16 -23 -25 -49 -23 -59 4 -13 0 -19 -11 -19 -9 0 -16
-7 -16 -15 0 -8 -9 -15 -19 -15 -11 0 -38 -19 -61 -42 -37 -38 -43 -41 -68
-32 -37 14 -52 7 -52 -22 0 -24 -23 -33 -35 -14 -10 17 -25 11 -25 -10 0 -11
-7 -20 -15 -20 -10 0 -15 -10 -15 -31 0 -21 -4 -29 -12 -25 -7 3 -20 9 -29 12
-19 7 -44 54 -29 54 6 0 10 9 10 21 0 13 -4 18 -12 13 -6 -4 -17 1 -24 11 -13
17 -14 17 -20 -1 -13 -39 -13 -44 -4 -49 17 -10 11 -22 -12 -29 -16 -4 -28 0
-40 15 -10 12 -18 16 -18 10 0 -6 -7 -11 -15 -11 -8 0 -15 5 -15 10 0 6 -9 10
-20 10 -22 0 -27 15 -9 26 8 4 7 10 -1 18 -9 8 -14 8 -17 -3 -4 -9 -8 -10 -12
-2 -11 18 -54 -18 -48 -40 3 -12 0 -19 -9 -19 -9 0 -14 9 -13 23 4 45 -1 67
-16 67 -9 0 -18 7 -21 15 -4 8 -10 12 -15 9 -15 -9 -10 -24 7 -24 11 0 15 -6
11 -20 -3 -11 -1 -23 4 -26 17 -10 9 -26 -11 -21 -13 3 -20 0 -20 -9 0 -17
-19 -18 -41 -1 -21 16 -35 71 -17 64 7 -2 12 -10 10 -17 -1 -6 2 -10 8 -8 7 2
11 7 11 11 -1 4 -1 18 -1 32 0 16 -6 25 -15 25 -8 0 -15 -4 -15 -10 0 -29 -59
18 -60 48 0 20 -16 14 -28 -13 -6 -13 -23 -27 -37 -31 -14 -3 -25 -11 -25 -16
0 -6 -11 -7 -24 -4 -18 4 -28 1 -35 -11 -8 -15 -11 -15 -25 -4 -14 12 -19 11
-31 -5 -13 -17 -14 -18 -15 -1 0 13 -9 17 -40 17 -29 0 -40 4 -40 15 0 23 -27
18 -33 -6 -5 -17 -11 -20 -28 -16 -13 4 -28 2 -35 -4 -8 -7 -14 -7 -19 1 -3 5
-19 10 -36 10 -30 0 -32 5 -29 53 2 34 -3 34 -35 0 -19 -21 -27 -25 -34 -15
-5 9 -17 11 -34 7 -15 -4 -24 -11 -21 -16 3 -5 -6 -14 -20 -20 -30 -14 -56 1
-56 32 0 20 -14 23 -91 19 l-36 -1 5 50 c4 42 2 51 -11 51 -9 0 -18 8 -20 18
-2 9 -3 6 -2 -8 1 -14 6 -33 10 -42 5 -14 2 -18 -14 -18 -13 0 -19 5 -15 14 7
18 -15 31 -28 18 -8 -8 -8 -15 1 -26 7 -8 10 -19 7 -24 -3 -6 4 -13 17 -17 13
-4 17 -8 10 -12 -7 -2 -13 -11 -13 -19 0 -19 -50 -18 -76 1 -11 8 -14 15 -6
15 6 0 12 7 12 16 0 9 8 23 18 30 16 13 16 15 -2 28 -18 15 -18 16 2 40 10 14
23 22 26 18 4 -4 14 1 21 12 8 10 21 16 29 13 9 -4 21 2 30 15 11 15 22 19 41
15 24 -4 26 -2 22 20 -3 19 1 27 20 34 14 5 37 9 51 8 15 -1 41 6 57 15 17 9
37 16 46 16 9 0 22 6 29 14 6 8 17 13 25 10 7 -3 29 1 48 9 82 35 199 48 284
31 20 -4 43 0 64 10 18 9 38 16 46 16 7 0 13 7 13 15 0 8 5 15 11 15 6 0 9 9
6 20 -6 24 9 35 45 31 29 -3 36 7 17 26 -8 8 -8 13 0 17 6 4 11 2 11 -3 0 -21
21 -11 30 14 5 14 17 25 25 25 11 0 15 6 10 19 -6 21 18 46 35 36 14 -9 60 2
60 14 0 6 -10 11 -21 13 -33 5 -46 32 -25 53 13 14 19 15 31 5 9 -8 15 -8 15
-2 0 6 -6 12 -12 15 -10 3 -10 7 1 20 7 9 11 23 8 32 -4 8 -2 17 4 21 6 3 14
17 19 30 5 13 16 24 24 24 10 0 13 -6 10 -15 -4 -8 -2 -15 3 -15 18 0 22 12
11 36 -12 25 -32 31 -43 13 -4 -6 -13 -8 -20 -5 -7 2 -15 -4 -18 -16 -5 -17
-11 -20 -38 -14 -17 3 -40 6 -50 6 -11 0 -19 6 -19 14 0 9 8 12 24 9 27 -6
109 20 114 35 2 6 -15 12 -39 14 -38 3 -43 6 -46 31 -3 23 0 27 20 27 30 0 40
10 26 26 -14 17 -3 34 22 34 16 0 18 -3 9 -19 -18 -34 -13 -71 10 -71 11 0 20
-7 20 -15 0 -8 7 -15 15 -15 19 0 19 24 0 40 -21 17 4 40 44 40 24 0 31 4 31
19 0 10 7 21 15 25 20 7 19 22 -1 30 -24 9 -54 -12 -54 -39 0 -21 -5 -25 -31
-25 -16 0 -28 4 -25 9 11 18 -19 62 -46 68 -25 5 -28 10 -28 44 0 22 5 39 10
39 6 0 10 -8 10 -19 0 -28 23 -42 78 -48 58 -5 77 15 37 41 l-24 16 22 41 c16
31 19 43 10 46 -18 6 -16 24 4 38 18 13 10 35 -13 35 -8 0 -26 7 -39 16 -28
18 -55 13 -55 -11 0 -8 -5 -15 -11 -15 -6 0 -8 8 -4 19 4 14 0 21 -15 26 -15
5 -20 13 -17 23 19 60 19 60 -4 64 -21 3 -32 16 -42 48 -2 8 -6 19 -8 24 -9
21 40 11 52 -11 9 -17 15 -20 26 -12 7 6 13 17 13 25 0 16 -40 45 -52 38 -4
-3 -8 15 -8 40 0 44 -21 80 -72 126 -9 8 -19 34 -23 57 -6 39 -5 41 14 36 16
-4 21 -1 21 16 0 11 -4 21 -10 21 -12 0 -30 65 -30 108 0 17 -4 32 -10 32 -16
0 -11 26 10 53 26 32 18 74 -13 79 -28 4 -26 43 3 70 25 23 25 30 0 46 -25 15
-26 42 -1 42 10 0 21 9 24 20 8 32 -4 104 -20 117 -11 8 -13 20 -9 35 4 13 11
58 15 101 5 48 14 84 25 95 9 10 16 32 16 48 1 16 7 46 14 67 8 20 10 40 5 43
-12 7 -11 75 1 94 5 8 10 11 10 5 1 -30 20 27 20 60 0 29 5 44 20 52 14 10 17
18 12 34 -5 12 -6 34 -4 49 3 22 10 30 31 32 l26 3 -29 16 -29 16 22 15 c15
10 19 18 11 23 -6 4 -8 16 -4 27 5 15 0 26 -17 39 -20 15 -21 19 -6 19 21 0
23 28 2 36 -8 4 -15 10 -15 15 0 5 7 9 15 9 11 0 15 12 15 49 0 29 5 51 12 53
12 4 8 20 -14 51 -11 14 -10 19 0 26 12 7 11 13 -1 37 -8 16 -17 53 -19 82
l-5 54 28 -6 c32 -6 38 4 14 24 -36 30 -12 40 210 90 22 5 54 12 70 16 56 14
70 15 245 23 267 11 452 4 524 -20z m-1544 -163 c0 -21 -18 -37 -46 -42 -19
-3 -37 -10 -40 -15 -3 -5 -16 -9 -30 -9 -14 0 -34 -4 -44 -10 -10 -5 -52 -14
-92 -19 -40 -5 -134 -19 -208 -31 -74 -12 -162 -25 -195 -30 -33 -5 -72 -13
-86 -19 -25 -9 -26 -11 -15 -46 l11 -36 95 7 c52 3 102 10 110 14 8 4 56 10
105 14 123 10 330 55 372 82 12 8 29 14 38 14 34 0 -6 -38 -57 -54 -29 -9 -60
-20 -68 -23 -29 -13 -236 -50 -430 -77 -98 -14 -140 -23 -146 -29 -2 -2 -1
-18 2 -36 9 -43 26 -45 185 -27 74 9 156 18 182 21 60 7 220 47 270 68 20 9
37 13 37 8 0 -12 -23 -31 -37 -31 -8 0 -33 -9 -55 -20 -23 -11 -51 -20 -63
-20 -11 0 -25 -4 -30 -9 -15 -13 -165 -40 -352 -61 -99 -12 -103 -13 -103 -37
0 -13 5 -33 11 -44 9 -18 17 -19 82 -14 118 9 249 26 275 36 13 5 33 9 44 9
22 0 174 57 196 73 6 5 12 6 12 1 -1 -15 -27 -44 -39 -44 -6 0 -22 -7 -34 -15
-59 -38 -167 -66 -340 -88 l-179 -22 4 -32 c2 -18 1 -33 -2 -33 -9 0 -43 138
-45 182 0 9 -6 27 -12 40 -6 12 -19 55 -29 93 -9 39 -20 75 -24 80 -4 6 -10
30 -14 55 l-6 45 77 3 c43 1 96 9 118 17 22 7 74 17 115 20 41 3 91 10 110 15
19 5 64 11 100 14 66 5 142 23 215 49 45 17 55 19 55 13z m-2363 -195 c-2 -10
-1 -25 4 -32 8 -11 12 -10 24 5 8 11 20 16 30 12 19 -7 11 -26 -11 -26 -8 0
-14 -4 -14 -10 0 -12 20 -13 39 -1 28 18 41 2 23 -28 -15 -27 -14 -30 6 -56
l22 -28 0 42 c0 42 5 47 29 32 8 -5 10 -14 6 -21 -5 -7 -7 -30 -7 -51 1 -23
-3 -39 -12 -42 -10 -4 -12 0 -8 15 4 18 3 19 -17 9 -17 -10 -21 -9 -21 4 0 8
-4 15 -10 15 -5 0 -7 7 -4 15 4 9 -1 17 -12 21 -11 4 -26 16 -35 27 -16 19
-18 20 -34 4 -9 -9 -21 -17 -26 -17 -6 0 -7 -5 -4 -10 9 -15 -4 -51 -18 -49
-32 4 -32 -4 0 -36 39 -39 43 -41 43 -20 0 8 4 15 9 15 5 0 14 -7 21 -15 9
-10 9 -15 1 -15 -16 0 -14 -19 5 -37 12 -12 12 -18 3 -23 -14 -9 -3 -30 17
-30 8 0 14 10 14 26 0 19 5 25 17 22 29 -5 25 -32 -8 -57 -23 -17 -33 -20 -39
-11 -4 6 -7 -2 -6 -20 1 -24 5 -30 18 -27 24 7 31 -42 9 -62 -9 -9 -12 -14 -6
-11 14 7 38 6 52 -3 16 -10 9 -94 -10 -116 -8 -9 -17 -23 -20 -31 -3 -8 -6 -3
-6 13 -1 18 4 27 14 27 8 0 15 5 15 10 0 6 -4 10 -9 10 -5 0 -11 10 -13 22 -2
14 -11 24 -23 25 -11 2 -14 0 -7 -3 15 -7 16 -40 1 -50 -8 -5 -8 -9 1 -14 15
-9 2 -62 -14 -54 -6 3 -3 -1 7 -9 9 -8 17 -20 17 -26 0 -7 10 -12 23 -11 37 3
47 1 47 -14 0 -9 -8 -12 -25 -8 -18 3 -25 0 -25 -11 0 -8 6 -18 13 -20 7 -3 4
-6 -7 -6 -13 -1 -16 -6 -12 -18 4 -10 4 -14 0 -10 -4 4 -13 2 -21 -4 -11 -9
-13 -1 -13 45 0 49 -2 56 -20 56 -26 0 -42 31 -25 47 8 7 15 9 18 5 2 -4 2 -1
0 7 -2 7 1 19 7 26 8 10 8 19 -2 35 -11 17 -11 22 1 29 9 6 11 18 7 39 -5 21
-2 34 9 46 15 15 15 16 -2 16 -10 0 -25 -5 -33 -10 -12 -8 -13 -13 -3 -29 10
-16 10 -26 1 -46 -6 -14 -16 -25 -21 -25 -5 0 -4 -7 3 -15 9 -11 9 -22 1 -46
-6 -18 -11 -45 -11 -60 0 -16 -4 -29 -10 -29 -5 0 -10 5 -10 10 0 6 -8 10 -18
10 -18 0 -48 38 -37 48 4 4 11 -1 16 -11 13 -22 31 -22 27 1 -1 9 1 23 6 30 5
9 2 20 -8 30 -15 15 -16 15 -16 -1 0 -9 -7 -17 -15 -17 -21 0 -19 7 10 35 21
18 24 29 19 52 -4 15 -12 31 -18 35 -10 7 16 12 52 11 7 -1 11 4 9 11 -2 6
-14 10 -25 9 -13 -2 -23 5 -27 18 -8 24 3 39 14 20 6 -10 12 -9 25 4 15 15 16
15 16 -9 0 -16 6 -26 15 -26 8 0 15 8 15 19 0 10 -7 24 -15 31 -8 7 -15 26
-15 42 0 23 4 29 15 24 10 -4 15 1 15 15 0 16 -5 20 -20 16 -18 -5 -23 2 -19
30 1 10 -30 25 -40 19 -5 -4 -7 -15 -4 -26 4 -14 0 -20 -11 -20 -9 0 -16 7
-16 15 0 8 -6 15 -14 15 -7 0 -19 6 -25 14 -9 11 -7 15 11 19 12 4 28 1 35 -5
19 -15 17 16 -2 36 -8 8 -15 18 -15 21 0 4 7 5 15 1 11 -4 15 1 15 19 0 17 -4
23 -14 19 -11 -4 -13 0 -9 17 4 15 3 20 -5 15 -7 -4 -12 -1 -12 8 0 21 9 20
32 -1 12 -11 22 -14 26 -7 4 6 20 10 36 10 34 -1 48 23 18 31 -21 5 -20 23 1
51 14 18 20 15 14 -7z m-6662 -6 c15 -46 19 -50 23 -17 2 24 8 32 23 32 23 0
25 -15 4 -24 -17 -6 -21 -46 -5 -46 6 0 10 7 10 15 0 14 3 14 24 0 17 -11 35
-14 59 -10 20 4 44 2 56 -4 15 -8 27 -9 40 -1 15 7 23 6 35 -6 23 -22 39 -54
28 -54 -16 0 -23 -44 -9 -55 16 -14 47 -73 47 -90 0 -9 -14 -15 -37 -17 l-38
-3 1 -45 c1 -25 5 -57 9 -71 5 -18 2 -31 -9 -42 -9 -8 -16 -21 -16 -27 0 -16
26 -40 44 -40 26 0 26 -16 1 -30 -32 -17 -32 -35 -1 -55 13 -9 32 -32 41 -51
9 -19 20 -34 25 -34 6 0 10 -13 10 -30 0 -16 -4 -30 -10 -30 -5 0 -10 -5 -10
-10 0 -12 -41 -73 -52 -78 -14 -6 -8 -69 6 -82 19 -15 10 -40 -14 -40 -20 0
-46 26 -31 32 5 1 12 19 16 39 l7 37 -66 32 c-36 18 -68 41 -71 51 -4 11 -11
19 -16 19 -5 0 -9 11 -9 24 0 19 -10 30 -45 47 -42 21 -45 25 -45 64 0 23 -7
50 -15 61 -19 25 -19 34 0 34 9 0 15 9 15 25 0 32 -27 34 -33 3 -4 -21 -4 -21
-6 3 0 14 -6 30 -13 37 -9 9 -9 15 0 24 8 8 6 16 -10 30 -12 10 -29 18 -38 18
-10 0 -28 8 -41 19 -40 31 -98 61 -120 61 -22 0 -49 22 -49 39 0 6 4 11 10 11
5 0 7 7 4 15 -4 10 3 16 23 20 70 16 90 39 69 80 -14 27 -11 65 5 65 5 0 9 7
9 15 0 8 9 15 20 15 13 0 20 7 20 20 0 18 7 20 60 20 45 0 62 -4 65 -15z
m6942 -155 c-3 -11 0 -23 5 -27 7 -3 8 -1 4 5 -4 7 -5 12 -1 12 8 0 57 -32 73
-47 15 -14 42 -18 42 -5 -1 14 -27 42 -33 35 -4 -3 -7 1 -7 9 0 12 7 14 33 9
18 -4 32 -13 32 -21 0 -8 8 -21 18 -28 9 -7 17 -17 17 -22 0 -4 12 -27 27 -49
44 -68 33 -98 -19 -53 -16 13 -18 13 -24 -2 -3 -9 -10 -13 -15 -10 -11 6 -11
1 -3 -20 4 -10 18 -16 35 -16 36 0 39 -25 4 -34 -26 -7 -34 -31 -12 -39 8 -4
8 -8 2 -14 -5 -4 -10 -12 -11 -18 -1 -5 -5 -20 -9 -33 -7 -21 -8 -21 -21 -5
-7 10 -14 28 -14 40 0 12 -9 27 -20 33 -12 6 -20 21 -20 35 0 25 -8 29 -42 26
-11 -2 -18 5 -18 14 0 9 5 13 10 10 6 -3 10 3 10 14 0 15 -6 21 -21 21 -21 0
-21 1 3 20 38 29 23 90 -22 90 -13 0 -13 -1 0 -10 13 -9 13 -11 0 -20 -11 -7
-16 -5 -18 6 -3 11 -11 14 -28 10 l-25 -7 21 21 c22 22 17 49 -9 51 -9 0 -1 5
17 10 17 5 32 14 32 19 0 6 3 10 6 10 4 0 4 -9 1 -20z m2007 -175 c-11 -38
-116 -93 -227 -119 -48 -11 -249 -36 -290 -36 l-40 0 7 -47 c4 -32 3 -44 -4
-37 -5 5 -12 35 -15 66 l-5 55 87 6 c241 17 407 60 472 123 18 17 22 14 15
-11z m-7879 -283 c-3 -3 -11 0 -17 6 -7 7 -25 12 -41 12 -23 0 -31 7 -43 35
-7 19 -14 44 -14 55 0 11 -4 20 -9 20 -12 0 -23 59 -13 75 8 15 6 15 72 15 46
0 50 2 50 24 0 13 3 33 8 43 4 10 8 -49 10 -131 1 -82 0 -151 -3 -154z m7849
124 c-3 -14 -12 -26 -20 -26 -8 0 -14 -4 -14 -8 0 -29 -176 -74 -333 -87 -43
-3 -90 -10 -104 -16 -23 -9 -25 -13 -19 -51 4 -23 9 -44 12 -47 6 -6 201 24
321 50 71 16 102 28 135 54 23 19 44 32 46 30 11 -10 -14 -44 -53 -73 -58 -42
-141 -62 -367 -91 -31 -3 -60 -9 -63 -13 -4 -3 -3 -26 2 -50 l9 -43 49 3 c49
2 161 23 240 44 22 5 50 12 63 14 27 5 69 30 96 57 30 30 31 10 1 -28 -31 -42
-64 -58 -185 -90 -36 -10 -103 -23 -149 -30 -46 -7 -88 -18 -93 -23 -6 -6 -5
-24 3 -51 10 -33 17 -41 35 -41 33 0 215 39 236 50 10 6 24 10 33 10 17 0 97
40 106 53 4 5 12 8 18 6 14 -5 4 -19 -45 -57 -23 -17 -52 -32 -64 -32 -12 0
-34 -7 -48 -14 -24 -13 -70 -24 -177 -42 -65 -11 -75 -15 -76 -32 -1 -27 -34
92 -54 193 -2 11 -8 45 -14 75 -6 30 -17 79 -25 108 -10 38 -12 61 -5 81 9 26
13 28 82 29 166 4 417 71 417 111 0 8 2 12 5 9 4 -3 3 -17 -1 -32z m-8175
-317 c42 -12 78 -25 81 -29 3 -4 17 -10 33 -14 28 -7 67 -39 67 -55 0 -14 100
-23 116 -10 22 18 20 -131 -2 -174 -17 -31 -17 -31 -25 -9 -5 13 -14 22 -21
21 -7 -2 -23 0 -35 5 -24 8 -63 -22 -63 -49 0 -8 -5 -15 -12 -15 -6 0 -20 -8
-30 -17 -16 -14 -23 -15 -38 -5 -24 15 -50 16 -50 2 0 -5 -5 -10 -11 -10 -6 0
-24 -11 -40 -24 -18 -15 -36 -22 -49 -19 -24 6 -26 20 -4 25 13 2 13 6 2 21
-11 15 -34 19 -138 23 -87 4 -135 11 -157 22 -32 16 -45 42 -22 42 6 0 26 7
45 16 45 21 48 66 7 86 -41 20 -38 34 7 30 32 -3 40 -1 40 12 0 12 9 16 34 16
29 0 34 4 39 28 3 15 0 36 -7 46 -37 57 88 75 233 35z m8191 -207 c0 -5 -15
-24 -32 -44 -40 -42 -129 -76 -315 -120 -37 -8 -43 -13 -43 -36 0 -15 3 -38 7
-51 6 -22 9 -23 57 -16 28 3 55 10 61 14 5 5 25 12 43 16 18 4 45 13 60 21 15
8 33 14 40 14 15 0 79 45 101 69 11 14 12 13 6 -9 -13 -43 -119 -107 -215
-130 -27 -7 -53 -16 -56 -21 -3 -5 -20 -9 -39 -9 -20 0 -35 -6 -39 -15 -10
-27 -26 -16 -26 18 0 17 -4 48 -9 67 -12 46 -23 154 -12 120 4 -14 12 -24 17
-24 38 5 141 28 149 34 6 4 30 11 54 15 50 8 160 62 168 82 6 14 23 18 23 5z
m-8537 -352 c4 -17 14 -20 70 -20 45 0 68 -5 77 -15 21 -25 4 -45 -37 -45 -32
0 -40 -4 -50 -28 -17 -36 -49 -50 -90 -37 -18 5 -33 13 -33 17 0 4 -11 2 -26
-4 -20 -10 -30 -9 -54 5 -15 9 -38 17 -49 17 -15 0 -21 6 -21 23 0 16 -9 27
-27 34 -27 11 -27 11 15 12 23 1 42 6 42 11 0 6 26 10 58 10 45 0 63 5 78 19
25 26 40 26 47 1z m575 -182 c-5 -23 -13 -45 -17 -48 -12 -8 -21 -40 -12 -40
9 0 3 -71 -9 -105 -6 -15 -8 -12 -14 17 -4 21 -13 49 -21 65 -12 22 -15 24
-20 10 -3 -9 -7 -25 -10 -34 -4 -11 -9 -13 -16 -6 -8 8 -8 17 0 31 15 28 14
32 -9 32 -11 0 -20 6 -20 14 0 8 -8 17 -17 19 -13 3 -11 5 6 6 20 1 23 5 18
30 -5 24 -2 30 16 35 43 11 87 7 94 -11 5 -14 8 -13 14 5 15 39 27 24 17 -20z
m10829 -567 c11 -14 12 -14 13 1 0 18 23 20 48 4 7 -4 19 -2 28 5 21 17 25 9
27 -67 2 -69 2 -69 32 -72 17 -2 36 -11 43 -20 17 -22 15 -79 -3 -86 -19 -7
-19 -21 0 -40 22 -21 5 -28 -82 -32 -72 -3 -77 -2 -105 27 -31 31 -58 38 -58
15 0 -18 -53 -39 -79 -31 -19 6 -19 8 11 40 17 19 34 32 38 30 4 -3 13 9 20
26 12 29 11 32 -29 73 -35 36 -42 50 -44 86 -2 42 0 45 28 51 51 11 99 7 112
-10z m-515 -354 c7 -8 27 -17 43 -21 26 -7 28 -9 10 -16 -11 -4 -36 -6 -57 -4
-39 3 -65 -16 -53 -37 5 -8 25 -9 60 -5 29 3 74 3 99 0 39 -6 47 -11 53 -33 3
-14 13 -33 22 -41 13 -13 12 -15 -15 -18 -16 -2 -33 -7 -39 -12 -5 -4 -26 -11
-45 -15 -19 -4 -48 -17 -65 -29 -39 -30 -68 -36 -83 -19 -7 7 -22 13 -32 13
-11 0 -19 3 -19 8 1 4 1 24 0 45 -1 37 -1 37 -44 37 -52 0 -87 -22 -87 -56 0
-13 -5 -33 -12 -43 -15 -24 -4 -51 21 -51 13 0 23 -9 27 -24 7 -30 -36 -76
-71 -76 -40 0 -61 -64 -30 -90 10 -8 15 -30 15 -61 0 -51 12 -68 35 -49 12 10
18 10 30 0 9 -7 25 -10 42 -6 14 4 55 4 90 0 59 -6 64 -8 59 -28 -10 -41 25
-55 91 -37 22 6 37 5 49 -3 15 -11 15 -14 -2 -31 -19 -19 -20 -21 -22 -67 -2
-22 -11 -32 -44 -49 -23 -12 -48 -28 -56 -35 -21 -22 -58 -27 -96 -14 -20 6
-40 9 -45 5 -12 -7 -81 28 -92 47 -7 10 -11 10 -21 0 -6 -6 -25 -12 -40 -12
-24 0 -28 4 -28 28 0 15 -9 41 -20 57 -11 17 -20 36 -20 44 0 8 -8 19 -17 26
-17 12 -17 16 -1 62 10 30 17 84 18 148 1 97 11 135 29 106 10 -15 51 -6 51
12 0 7 5 6 11 -3 9 -12 10 -12 5 3 -3 10 -6 25 -6 32 0 8 -12 20 -27 27 -23
11 -28 20 -27 48 2 36 21 115 23 92 1 -8 13 -4 36 14 27 21 42 25 66 20 32 -6
35 -4 131 91 35 35 77 43 100 20z m-11837 -359 c26 -30 50 -36 58 -15 3 6 6 3
6 -8 0 -12 -12 -29 -33 -42 -31 -20 -34 -26 -34 -68 1 -30 7 -49 17 -56 13 -9
12 -10 -6 -6 -12 3 -27 -1 -33 -8 -16 -19 -1 -45 27 -45 30 0 80 -28 88 -49 7
-17 -13 -32 -35 -27 -8 3 -50 7 -93 11 -75 7 -80 6 -105 -18 -35 -32 -63 -40
-97 -27 -38 14 -54 38 -55 78 0 23 -9 41 -30 62 -16 16 -30 33 -30 38 0 5 -11
14 -24 21 -20 11 -46 49 -46 66 0 3 33 5 74 5 41 0 78 5 81 10 3 6 -3 10 -14
10 -27 0 -36 17 -14 28 24 13 43 4 43 -19 0 -16 6 -18 41 -15 38 4 79 28 79
48 0 4 -7 8 -15 8 -8 0 -15 5 -15 10 0 6 -11 8 -27 3 -31 -7 -62 -7 -70 1 -3
3 -3 12 1 21 5 14 22 16 122 13 112 -3 117 -4 139 -30z m1320 -48 c4 -11 4
-33 1 -48 -13 -57 -15 -126 -6 -137 15 -18 31 -158 19 -166 -6 -3 -3 -11 6
-19 14 -12 14 -15 -5 -35 l-20 -22 28 5 c31 4 49 -18 61 -79 5 -25 13 -35 29
-37 13 -2 26 -11 28 -20 3 -9 13 -30 21 -46 16 -29 15 -30 -18 -57 -19 -16
-40 -29 -46 -29 -7 0 -13 -7 -13 -15 0 -15 -4 -17 -65 -19 -29 -1 -38 -6 -50
-33 -9 -17 -24 -35 -35 -38 -19 -6 -90 -97 -90 -116 0 -22 -24 -2 -32 26 -13
51 15 129 65 182 27 28 29 37 24 79 -7 62 -39 86 -57 42 -8 -22 -9 -21 -15 10
-4 17 -11 32 -16 32 -5 0 -9 20 -9 44 0 33 -4 45 -17 50 -10 3 -24 9 -31 12
-10 5 -13 -1 -10 -22 2 -24 -1 -30 -21 -32 -37 -6 -74 7 -63 21 7 8 6 15 -2
22 -17 15 -39 12 -57 -8 -9 -9 -23 -15 -31 -12 -8 3 -25 -6 -38 -21 -25 -25
-25 -26 -5 -40 12 -9 31 -13 47 -10 15 3 30 1 33 -4 4 -6 -16 -10 -50 -10 -48
0 -58 3 -62 20 -6 22 -33 26 -64 10 -14 -8 -25 -6 -44 6 -28 18 -75 12 -75
-10 0 -23 -26 -26 -41 -4 -34 48 -32 47 -78 38 -25 -4 -50 -15 -56 -23 -6 -9
-23 -19 -37 -22 -21 -5 -27 -14 -31 -43 -3 -22 1 -46 9 -59 16 -26 7 -35 -57
-52 -45 -12 -48 -12 -128 29 -45 23 -102 59 -127 81 -25 21 -48 39 -52 39 -4
0 -15 7 -25 14 -18 14 -18 15 0 35 15 18 29 21 104 21 68 0 88 3 93 15 3 8 15
15 26 15 12 0 32 11 45 24 23 23 26 24 37 7 21 -28 42 -30 86 -11 40 18 65 60
47 78 -3 4 -37 8 -73 9 -37 1 -80 7 -97 14 l-30 13 34 4 c19 2 62 -1 96 -7 78
-14 175 -14 175 -1 0 6 -7 10 -15 10 -8 0 -24 9 -34 19 -20 20 -20 20 0 26 27
9 79 -4 85 -20 3 -8 24 -16 47 -20 93 -13 213 -37 229 -46 26 -14 58 -11 58 5
0 8 -5 16 -11 18 -7 2 -8 15 -2 38 8 30 14 35 39 35 16 -1 38 -4 50 -8 14 -5
29 -1 45 12 20 16 22 22 12 42 -20 43 -23 71 -6 65 8 -3 17 -6 19 -6 2 0 4 -7
4 -15 0 -11 11 -15 39 -15 34 0 42 4 54 29 14 28 13 32 -9 65 -13 19 -24 39
-24 44 0 15 26 22 76 22 24 0 44 4 44 10 0 5 7 7 15 4 8 -4 15 -1 15 5 0 19
28 12 35 -9z m11170 -444 c18 -13 18 -14 -4 -37 -17 -18 -21 -32 -18 -56 3
-17 3 -41 0 -52 -5 -21 -68 -51 -107 -51 -12 0 -31 -9 -41 -20 -10 -11 -22
-20 -27 -20 -4 0 -17 -9 -28 -20 -38 -38 -110 -24 -134 27 l-17 35 26 -6 c29
-7 75 2 75 15 0 5 -14 18 -32 29 -24 14 -35 16 -45 8 -7 -6 -13 -6 -13 -1 0
21 27 33 77 33 29 0 61 4 71 9 9 6 29 12 44 15 15 4 33 12 41 20 8 8 33 19 56
26 23 6 39 15 35 21 -7 12 2 39 14 39 4 0 17 -6 27 -14z m-3209 -213 c31 2 39
-2 42 -18 3 -16 1 -18 -9 -7 -17 16 -49 16 -49 -1 0 -19 27 -53 35 -45 4 4 16
3 26 -3 13 -6 19 -6 19 1 0 5 7 10 16 10 9 0 14 -8 13 -17 -3 -32 1 -44 11
-38 6 3 10 17 10 30 0 36 16 39 30 5 8 -20 20 -30 34 -30 11 0 26 -4 33 -8 13
-8 -7 -19 -87 -47 l-45 -15 -32 36 c-17 20 -37 33 -42 29 -7 -4 -11 4 -11 18
0 14 -6 27 -14 30 -8 3 -16 16 -18 29 -2 12 -14 28 -26 34 -34 17 -43 29 -37
46 5 13 11 11 34 -13 23 -23 35 -28 67 -26z m-427 -30 c31 -15 51 -6 51 23 0
13 4 24 9 24 12 0 16 -8 25 -42 5 -22 2 -27 -24 -37 -41 -14 -41 -43 0 -34 24
4 30 2 30 -11 0 -9 11 -21 25 -26 14 -5 25 -13 25 -17 0 -5 4 -14 9 -21 7 -12
12 -12 30 0 19 11 23 11 32 -4 15 -27 29 -21 29 12 0 20 5 30 15 30 8 0 15 -7
15 -15 0 -22 27 -18 40 5 8 15 15 18 33 11 14 -6 30 -5 41 1 27 15 69 -10 64
-37 -4 -18 1 -22 30 -23 19 -2 43 -7 54 -13 14 -7 23 -7 34 2 19 16 18 4 -3
-21 -20 -23 -61 -27 -69 -5 -4 8 -10 15 -15 15 -6 0 -6 -8 0 -19 6 -10 7 -21
4 -25 -3 -3 3 -6 15 -6 13 0 22 -6 22 -15 0 -9 -9 -15 -24 -15 -14 0 -28 -4
-31 -10 -3 -5 -17 -10 -31 -10 -23 0 -24 3 -18 35 5 29 3 35 -10 35 -11 0 -14
-5 -10 -12 5 -8 2 -9 -12 -3 -10 4 -30 9 -44 10 -32 4 -76 21 -84 33 -3 5 -16
7 -30 5 -17 -4 -22 -10 -19 -24 3 -10 9 -16 14 -13 15 9 49 -6 49 -22 0 -15 9
-17 48 -14 12 1 22 -4 22 -10 0 -7 -8 -10 -20 -7 -13 3 -20 0 -20 -8 0 -7 -13
-16 -30 -20 -16 -4 -30 -10 -30 -13 0 -13 -65 -36 -96 -33 -29 2 -30 0 -26
-27 5 -40 -16 -52 -38 -22 l-18 23 -6 -21 c-4 -12 -13 -22 -19 -22 -20 0 -68
36 -81 60 -12 24 -51 37 -61 20 -3 -6 2 -10 12 -10 20 0 58 -38 48 -48 -3 -3
-21 0 -41 7 -30 11 -39 10 -59 -3 -32 -21 -75 -21 -75 0 0 13 -3 14 -15 4 -8
-7 -13 -16 -10 -20 3 -5 -4 -6 -15 -3 -23 6 -28 -15 -5 -23 8 -4 15 -13 15
-21 0 -8 -5 -11 -10 -8 -18 11 -70 14 -70 5 0 -6 -11 -10 -25 -10 -16 0 -25 6
-25 15 0 25 -27 17 -34 -10 -7 -26 -21 -31 -45 -16 -10 7 -8 12 10 25 13 9 18
16 11 16 -7 0 -20 -9 -29 -20 -10 -11 -25 -20 -35 -20 -9 0 -29 -5 -43 -12
-21 -9 -28 -9 -35 2 -13 21 -40 3 -47 -31 -4 -20 -14 -34 -29 -40 -13 -4 -24
-15 -24 -24 0 -8 -7 -15 -15 -15 -8 0 -15 7 -15 15 0 8 -4 15 -10 15 -5 0 -7
7 -3 15 3 9 15 15 26 13 14 -2 23 3 25 14 4 19 -19 48 -37 48 -6 0 -19 9 -29
20 -15 16 -24 19 -43 11 -20 -8 -21 -10 -5 -10 25 -1 66 -39 66 -61 0 -12 -11
-20 -31 -24 -57 -11 -81 -7 -86 14 -3 11 -10 17 -15 14 -5 -3 -7 -13 -3 -22
14 -38 -59 -31 -83 8 -11 18 -10 20 14 20 38 0 24 24 -17 31 -19 3 -40 8 -46
12 -6 4 -16 1 -22 -7 -9 -11 -18 -7 -46 21 -22 22 -41 33 -51 29 -8 -3 -12 -2
-9 4 3 6 -6 15 -20 20 -38 14 -50 13 -35 -5 10 -12 10 -15 -2 -15 -8 0 -20 11
-26 25 -16 34 -15 35 9 35 11 0 18 4 14 9 -14 23 18 20 40 -3 23 -25 45 -34
45 -18 0 4 -9 15 -20 25 -33 28 -4 61 62 72 18 3 40 14 50 25 19 24 38 26 38
5 0 -8 7 -15 15 -15 8 0 15 -7 15 -15 0 -9 7 -18 15 -21 27 -11 16 -24 -19
-24 -19 0 -36 6 -39 13 -2 6 -8 9 -11 5 -8 -7 29 -48 43 -48 5 0 11 5 13 10 2
6 14 7 35 1 38 -11 52 8 19 24 -13 7 -21 20 -21 35 0 22 4 25 30 22 17 -2 58
-2 92 -2 50 1 62 -2 58 -13 -4 -9 -16 -12 -35 -9 -17 2 -30 0 -30 -6 0 -12
160 -21 174 -10 6 5 1 8 -10 8 -11 0 -37 12 -59 27 l-39 27 28 7 c16 5 33 13
37 20 5 9 15 9 39 0 44 -15 53 -14 46 4 -7 19 21 32 36 17 8 -8 8 -15 -2 -27
-10 -13 -9 -15 9 -15 12 0 21 -6 21 -15 0 -8 7 -15 15 -15 8 0 15 7 15 15 0 8
-7 15 -15 15 -10 0 -15 10 -15 33 1 29 2 30 14 15 16 -22 36 -23 36 -3 0 17
16 20 25 5 3 -5 15 -10 26 -10 16 0 18 5 13 24 -5 21 -3 24 15 19 12 -3 28
-15 36 -26 11 -16 18 -18 27 -9 9 9 9 17 -2 37 -11 20 -11 28 -1 38 10 9 14 8
22 -5 6 -10 22 -18 37 -19 15 0 21 -3 15 -6 -20 -8 -15 -31 8 -38 25 -8 33 -1
47 42 9 27 8 34 -6 42 -9 5 -14 13 -10 17 4 4 14 1 23 -6 13 -10 15 -9 15 9 0
17 6 21 30 21 24 0 30 4 31 23 l2 22 4 -22 c3 -15 12 -23 25 -23 16 0 19 5 14
24 -3 14 -2 28 4 31 5 3 10 16 11 28 1 20 2 20 8 -3 4 -14 17 -30 30 -37z
m2851 -52 c0 -6 -4 -13 -10 -16 -19 -12 -10 -35 18 -41 55 -12 80 -26 86 -49
7 -29 112 -73 130 -55 13 13 36 13 69 -2 28 -14 37 -38 13 -38 -20 0 -29 -30
-11 -36 32 -13 12 -24 -40 -24 -58 0 -67 -10 -39 -41 15 -16 15 -20 0 -50 -20
-39 -20 -39 -1 -39 10 0 15 -10 15 -30 0 -20 -5 -30 -15 -30 -8 0 -15 -7 -15
-15 0 -8 -7 -15 -15 -15 -20 0 -39 -36 -24 -46 7 -4 -21 -15 -61 -25 -41 -11
-81 -26 -90 -34 -24 -22 -107 -44 -173 -46 -49 -2 -60 1 -73 19 -11 16 -26 22
-54 22 -21 0 -42 5 -45 10 -3 6 -22 10 -42 10 -29 0 -43 8 -78 46 l-42 45 13
62 c7 34 20 89 29 122 9 33 23 87 30 120 8 33 19 73 24 88 11 28 41 65 41 51
0 -5 5 -3 12 4 21 21 50 13 83 -24 32 -35 34 -36 69 -24 20 6 46 21 59 32 12
11 45 28 72 38 62 22 65 22 65 11z m-9803 -320 c17 -25 34 -58 37 -73 6 -25 3
-28 -41 -42 -73 -21 -193 -82 -232 -117 l-35 -31 -17 44 c-23 55 -23 102 -2
136 25 40 94 102 123 109 14 3 43 14 64 24 48 21 61 15 103 -50z m-971 -138
c7 -10 14 -26 14 -35 0 -10 7 -18 15 -18 8 0 15 -4 15 -9 0 -11 64 -25 105
-22 17 0 38 -6 49 -13 17 -14 17 -16 2 -31 -9 -9 -21 -25 -26 -36 -13 -23 -40
-25 -40 -4 0 8 -4 16 -10 16 -13 2 -21 4 -45 14 -59 23 -75 31 -75 37 0 5 -7
8 -15 8 -12 0 -15 13 -15 55 0 59 5 65 26 38z m11716 -106 c-4 -40 14 -51 38
-22 18 22 50 19 50 -4 0 -11 7 -27 16 -35 24 -24 7 -37 -44 -34 l-47 3 2 -49
c1 -39 -3 -54 -23 -75 -13 -14 -24 -37 -24 -51 0 -17 -8 -29 -27 -37 -59 -28
-92 -8 -73 42 12 31 5 49 -25 69 -35 23 -35 56 0 89 27 25 28 29 13 38 -10 6
-18 15 -18 22 1 17 74 67 99 67 11 0 23 5 26 11 4 5 14 9 23 7 13 -3 16 -12
14 -41z m-5677 -22 c11 -25 22 -40 25 -34 4 6 11 5 19 -5 10 -12 9 -16 -6 -25
-13 -7 -14 -10 -4 -11 8 0 23 7 33 17 10 9 18 11 18 5 0 -6 -5 -14 -10 -17 -6
-4 -8 -10 -5 -15 8 -13 -27 -21 -41 -9 -9 7 -30 9 -55 5 -36 -6 -42 -4 -67 25
-37 44 -46 79 -21 79 10 0 19 -5 19 -11 0 -6 6 -7 12 -2 7 4 26 6 43 5 16 -1
24 1 18 4 -7 3 -13 12 -13 20 0 28 17 13 35 -31z m-4970 -59 c-5 -34 -2 -74 6
-105 7 -28 9 -54 4 -58 -4 -5 -10 -2 -12 5 -3 6 -8 12 -13 12 -15 0 -21 -36
-11 -64 7 -17 7 -26 1 -26 -6 0 -10 -7 -10 -15 0 -13 8 -11 43 7 23 12 46 22
50 23 5 0 17 11 27 25 19 25 19 25 -5 50 -13 14 -27 41 -32 60 -9 37 -6 80 5
80 14 0 72 -108 66 -123 -4 -12 0 -14 15 -10 16 4 21 1 21 -16 0 -11 5 -21 10
-21 21 0 132 -108 124 -121 -3 -5 0 -9 5 -9 6 0 11 -10 11 -22 -1 -18 -14 -29
-58 -51 -76 -37 -133 -69 -149 -84 -8 -7 -30 -15 -51 -18 -20 -4 -49 -11 -63
-16 -15 -6 -34 -9 -42 -7 -14 3 -97 -77 -97 -95 0 -4 -16 2 -36 12 -27 15 -42
17 -60 11 -14 -6 -26 -6 -29 1 -8 11 4 69 13 69 4 0 18 18 32 40 13 22 28 40
32 40 4 0 8 6 8 13 0 9 -10 12 -30 9 -40 -6 -63 14 -55 46 7 30 62 112 86 129
16 12 99 129 99 140 0 2 9 13 20 25 l19 21 12 -48 c10 -39 14 -45 20 -29 4 11
5 44 3 72 -3 49 8 102 21 102 4 0 3 -24 0 -54z m3075 -223 c0 -7 9 -13 20 -13
25 0 26 -28 3 -45 -17 -13 -17 -14 0 -32 23 -27 22 -79 -2 -93 -28 -15 -51
-12 -51 5 0 8 7 15 15 15 8 0 15 7 15 16 0 11 -5 14 -16 10 -11 -4 -18 1 -21
14 -3 11 -12 20 -20 20 -8 0 -11 -5 -8 -10 4 -6 3 -19 -1 -28 -7 -17 -9 -28
-12 -66 -2 -18 -3 -18 -20 -3 -10 10 -24 17 -31 17 -8 0 -9 5 -1 19 14 26 13
31 -6 31 -11 0 -15 -8 -14 -27 3 -45 1 -53 -16 -53 -11 0 -14 6 -9 20 7 22 5
23 -19 14 -9 -3 -16 -12 -16 -19 0 -7 -7 -15 -15 -19 -9 -3 -15 0 -15 9 0 8
-7 15 -16 15 -9 0 -14 -6 -11 -13 9 -23 -7 -36 -51 -43 -44 -7 -57 7 -30 34 6
6 9 14 6 18 -6 5 -48 -31 -48 -41 0 -3 -9 -16 -20 -27 -18 -19 -31 -22 -103
-22 -71 1 -87 4 -105 22 -11 11 -18 23 -14 27 3 3 -4 8 -16 12 -15 3 -22 13
-22 29 0 17 -6 24 -20 24 -25 0 -25 5 1 46 11 19 18 34 14 34 -3 0 -1 9 5 21
9 15 18 19 35 15 14 -4 27 0 35 9 10 12 10 15 -1 15 -9 0 -6 8 9 22 23 24 43
18 22 -7 -10 -12 -10 -15 4 -15 9 0 16 7 16 16 0 11 8 15 28 13 15 -2 33 0 40
5 18 11 42 0 42 -19 0 -12 4 -14 19 -5 11 5 26 7 34 4 8 -3 18 -1 22 5 3 6 19
11 34 11 15 0 36 9 46 20 13 14 22 17 29 10 7 -7 6 -14 -2 -22 -20 -20 -14
-27 12 -15 13 6 22 17 19 23 -2 7 0 15 6 19 7 4 11 -7 11 -29 0 -44 16 -47 25
-6 7 30 35 43 35 15 0 -22 33 -18 59 6 25 23 41 19 21 -6 -10 -12 -10 -15 3
-15 23 0 42 27 28 43 -6 8 -8 17 -4 21 8 8 42 -33 43 -51z m7337 -8 c35 -23
39 -53 9 -80 -14 -13 -26 -29 -26 -34 0 -20 -35 -81 -47 -81 -7 0 -13 5 -13
10 0 16 -19 12 -42 -10 -17 -16 -19 -22 -9 -34 9 -11 19 -12 36 -6 16 6 25 5
28 -3 7 -19 -11 -44 -36 -51 -13 -3 -36 -17 -52 -32 -16 -15 -45 -29 -65 -31
l-37 -5 -7 51 c-5 41 -10 51 -26 51 -25 0 -40 29 -40 75 0 22 -6 38 -15 41
-21 8 -19 61 3 83 10 11 37 20 68 23 30 3 64 14 80 25 34 25 156 30 191 8z
m-8662 -170 c32 -11 67 -27 77 -37 10 -10 27 -18 38 -18 11 0 20 -7 20 -15 0
-17 60 -20 122 -6 27 6 38 5 42 -4 2 -7 20 -15 39 -19 19 -4 40 -13 46 -20 7
-8 27 -17 46 -20 19 -4 35 -11 35 -16 0 -6 8 -10 19 -10 13 0 21 -9 25 -32 4
-20 15 -37 29 -44 148 -74 147 -74 147 -111 0 -28 -3 -34 -16 -29 -9 3 -20 6
-25 6 -4 0 -6 7 -3 15 4 8 1 15 -5 15 -6 0 -11 -10 -11 -23 0 -32 -39 -53 -68
-38 -29 15 -74 14 -98 -3 -14 -11 -22 -11 -32 -3 -8 7 -16 7 -20 1 -13 -19
-57 -31 -79 -23 -15 6 -27 4 -37 -6 -13 -13 -16 -13 -30 0 -8 8 -24 15 -36 15
-12 0 -34 9 -48 21 -16 12 -38 19 -57 18 -35 -4 -95 18 -111 40 -7 9 -20 12
-34 8 -29 -7 -70 27 -53 44 15 15 -13 60 -36 57 -26 -5 -38 62 -18 101 12 23
13 39 7 57 -5 13 -12 37 -15 52 -2 15 -9 28 -15 30 -5 2 -8 7 -6 10 8 13 103
5 161 -13z m-3670 -75 c3 -5 19 -10 34 -10 23 0 32 -7 46 -37 10 -21 24 -42
31 -46 18 -10 18 -37 0 -37 -8 0 -16 -7 -20 -15 -8 -21 -48 -19 -68 4 -8 10
-20 20 -25 22 -16 7 -72 92 -67 101 6 9 41 26 56 27 4 1 10 -3 13 -9z m3373
-60 c11 -23 20 -30 42 -30 16 0 32 5 35 10 11 18 33 10 39 -15 6 -25 -4 -89
-26 -158 -11 -36 -12 -37 -28 -19 -10 10 -21 28 -24 40 -5 13 -16 22 -28 22
-16 0 -19 -5 -14 -24 8 -34 -4 -86 -20 -86 -8 0 -14 9 -14 20 0 15 -7 20 -29
20 -18 0 -31 6 -36 18 -6 15 -8 15 -25 -5 -22 -28 -30 -29 -30 -5 0 10 -12 22
-29 28 -54 21 -44 101 21 166 22 22 27 22 50 1 11 -9 18 -11 18 -5 0 7 6 12
14 12 14 0 15 -12 2 -42 -14 -30 -3 -63 19 -60 28 5 28 6 14 45 -10 28 -9 40
2 66 17 39 30 39 47 1z m7554 -37 c2 -27 1 -40 -6 -68 -5 -18 -2 -25 8 -25 10
0 13 -6 10 -15 -4 -10 3 -18 19 -24 35 -14 42 -29 21 -52 -15 -17 -26 -18 -83
-13 -36 4 -81 13 -98 21 -18 9 -40 13 -48 9 -8 -3 -15 -2 -15 2 0 11 69 35
100 36 23 1 25 5 28 51 3 38 -1 52 -14 62 -17 12 -16 13 3 13 12 0 25 5 28 10
10 17 45 11 47 -7z m-679 -280 c5 -3 6 -16 3 -29 -5 -18 -2 -24 10 -24 9 0 31
-7 49 -16 25 -11 32 -20 28 -35 -3 -10 -9 -19 -14 -19 -19 0 -7 -27 17 -38 17
-9 31 -9 44 -2 15 8 21 6 28 -7 12 -22 5 -43 -14 -43 -16 0 -19 -16 -4 -25 6
-3 10 -17 10 -30 0 -28 -57 -65 -111 -72 -31 -5 -38 -10 -43 -34 -3 -17 -12
-29 -21 -29 -9 0 -15 -9 -15 -23 0 -32 -31 -57 -53 -43 -13 8 -25 7 -48 -6
-33 -19 -76 -23 -97 -9 -19 11 27 61 57 61 22 0 28 14 11 25 -18 11 -11 35 11
35 11 0 18 4 14 9 -3 6 -27 7 -54 4 -45 -5 -49 -4 -55 20 -5 22 -13 26 -48 29
-54 4 -88 44 -72 86 9 25 4 84 -11 132 -4 14 2 21 30 30 20 7 49 10 63 7 20
-4 34 1 54 20 21 20 37 26 68 25 22 -1 40 3 40 8 0 10 106 4 123 -7z m302
-323 c10 -11 29 -20 42 -20 12 0 23 -4 23 -9 0 -15 -32 -22 -47 -10 -19 16
-27 5 -14 -19 16 -30 3 -52 -30 -52 -19 0 -29 -5 -29 -15 0 -20 -34 -19 -54 1
-12 11 -14 26 -10 55 5 29 2 44 -10 58 -22 25 -12 31 54 31 44 0 61 -4 75 -20z
m940 -10 c3 -5 16 -10 28 -10 26 -1 51 -18 60 -42 4 -12 2 -18 -8 -18 -8 0
-15 -6 -15 -14 0 -8 -9 -18 -20 -21 -13 -4 -20 -15 -20 -31 0 -22 -4 -24 -45
-24 -33 0 -45 4 -45 15 0 18 -26 20 -33 3 -7 -21 -29 6 -29 35 0 30 25 66 67
96 33 23 50 26 60 11z"/>
<path d="M5782 6948 c-15 -15 12 -47 42 -49 17 -1 18 -2 4 -6 -10 -2 -18 -6
-18 -8 0 -3 -11 -46 -24 -97 -27 -104 -47 -160 -59 -169 -5 -3 -8 -10 -8 -15
1 -5 -3 -10 -9 -10 -5 -1 -14 -2 -19 -3 -24 -3 -71 -55 -71 -77 0 -13 -4 -24
-9 -24 -16 0 -20 -142 -4 -175 11 -23 11 -31 1 -34 -6 -2 -22 -15 -35 -27 -13
-13 -28 -24 -33 -24 -5 0 -13 -12 -16 -26 -7 -28 9 -74 26 -74 5 0 10 -11 10
-25 0 -21 5 -25 28 -25 43 0 50 10 47 66 -3 63 1 71 39 76 35 4 45 24 17 33
-17 5 -21 15 -21 50 0 56 18 143 32 151 6 4 33 8 60 9 l50 3 -6 -31 c-3 -17
-18 -55 -32 -84 -27 -54 -26 -75 3 -57 48 30 76 211 40 252 -24 27 -30 80 -17
166 17 119 25 141 62 151 44 13 49 45 12 74 -29 23 -73 28 -92 9z"/>
<path d="M3516 4295 c-9 -13 -16 -31 -16 -38 0 -8 -9 -22 -21 -33 -12 -10 -18
-26 -15 -37 3 -12 -3 -21 -20 -27 -15 -6 -24 -17 -24 -31 0 -12 -11 -37 -25
-55 -32 -42 -42 -86 -23 -105 8 -8 17 -21 21 -29 3 -8 5 8 4 35 -2 48 -1 50
26 53 25 3 40 22 17 22 -5 0 -10 7 -10 15 0 8 4 15 9 15 5 0 11 10 14 23 17
69 33 97 53 97 28 0 48 24 41 50 -3 10 1 24 9 31 11 9 11 13 -1 25 -18 19 -20
18 -39 -11z"/>
</g>
</svg>
